<?xml version="1.0" encoding="UTF-8" standalone="no"?>
<!-- Created with Inkscape (http://www.inkscape.org/) -->

<svg
   width="210mm"
   height="297mm"
   viewBox="0 0 210 297"
   version="1.1"
   id="svg102"
   inkscape:version="1.1.2 (0a00cf5339, 2022-02-04)"
   sodipodi:docname="Zahlen.svg"
   xmlns:inkscape="http://www.inkscape.org/namespaces/inkscape"
   xmlns:sodipodi="http://sodipodi.sourceforge.net/DTD/sodipodi-0.dtd"
   xmlns="http://www.w3.org/2000/svg"
   xmlns:svg="http://www.w3.org/2000/svg">
  <sodipodi:namedview
     id="namedview104"
     pagecolor="#ffffff"
     bordercolor="#666666"
     borderopacity="1.0"
     inkscape:pageshadow="2"
     inkscape:pageopacity="0.0"
     inkscape:pagecheckerboard="0"
     inkscape:document-units="mm"
     showgrid="false"
     inkscape:zoom="0.73940797"
     inkscape:cx="535.56361"
     inkscape:cy="574.78418"
     inkscape:window-width="1920"
     inkscape:window-height="1012"
     inkscape:window-x="1920"
     inkscape:window-y="1080"
     inkscape:window-maximized="1"
     inkscape:current-layer="layer1" />
  <defs
     id="defs99">
    <rect
       x="132.9512"
       y="810.35786"
       width="49.488957"
       height="69.075798"
       id="rect15024" />
    <rect
       x="137.8432"
       y="727.30818"
       width="47.981337"
       height="71.615407"
       id="rect13896" />
    <rect
       x="135.17961"
       y="637.41412"
       width="53.808753"
       height="101.58488"
       id="rect12064" />
    <rect
       x="128.57659"
       y="535.95025"
       width="53.376213"
       height="71.982407"
       id="rect11002" />
    <rect
       x="123.58091"
       y="399.83705"
       width="52.239719"
       height="92.251903"
       id="rect8928" />
    <rect
       x="134.2683"
       y="285.02632"
       width="43.94748"
       height="74.960171"
       id="rect6436" />
    <rect
       x="126.01139"
       y="167.64478"
       width="112.79512"
       height="90.316365"
       id="rect3694" />
  </defs>
  <g
     inkscape:label="Ebene 1"
     inkscape:groupmode="layer"
     id="layer1">
    <g
       aria-label="1"
       transform="matrix(0.26458333,0,0,0.26458333,-8.1445939,3.5230573)"
       id="text3692"
       style="font-size:40px;line-height:1.25;white-space:pre;shape-inside:url(#rect3694)">
      <path
         d="m 130.97266,199.71484 h 6.44531 v -22.24609 l -7.01172,1.40625 v -3.59375 l 6.97266,-1.40625 h 3.94531 v 25.83984 h 6.44531 v 3.32032 h -16.79687 z"
         id="path19563" />
    </g>
    <g
       aria-label="2"
       transform="matrix(0.26458333,0,0,0.26458333,-8.1445939,3.5230573)"
       id="text6434"
       style="font-size:40px;line-height:1.25;white-space:pre;shape-inside:url(#rect6436)">
      <path
         d="m 141.94336,317.0957 h 13.76953 v 3.32032 h -18.51562 v -3.32032 q 2.24609,-2.32422 6.11328,-6.23047 3.88672,-3.92578 4.88281,-5.05859 1.89453,-2.12891 2.63672,-3.59375 0.76172,-1.48437 0.76172,-2.91016 0,-2.32421 -1.64063,-3.78906 -1.62109,-1.46484 -4.23828,-1.46484 -1.85547,0 -3.92578,0.64453 -2.05078,0.64453 -4.39453,1.95312 v -3.98437 q 2.38281,-0.95703 4.45312,-1.44531 2.07032,-0.48828 3.78907,-0.48828 4.53125,0 7.22656,2.26562 2.69531,2.26563 2.69531,6.05469 0,1.79687 -0.68359,3.41797 -0.66407,1.60156 -2.44141,3.78906 -0.48828,0.56641 -3.10547,3.28125 -2.61719,2.69531 -7.38281,7.55859 z"
         id="path19541" />
    </g>
    <g
       aria-label="3"
       transform="matrix(0.26458333,0,0,0.26458333,-8.1445939,3.5230573)"
       id="text8926"
       style="font-size:40px;line-height:1.25;white-space:pre;shape-inside:url(#rect8928)">
      <path
         d="m 139.81055,419.50586 q 2.83203,0.60547 4.41406,2.51953 1.60156,1.91406 1.60156,4.72656 0,4.31641 -2.96875,6.67969 -2.96875,2.36328 -8.4375,2.36328 -1.83594,0 -3.78906,-0.37109 -1.93359,-0.35156 -4.00391,-1.07422 v -3.80859 q 1.64063,0.95703 3.59375,1.44531 1.95313,0.48828 4.08203,0.48828 3.71094,0 5.64454,-1.46484 1.95312,-1.46485 1.95312,-4.25782 0,-2.57812 -1.81641,-4.02343 -1.79687,-1.46485 -5.01953,-1.46485 h -3.39843 v -3.24219 h 3.55468 q 2.91016,0 4.45313,-1.15234 1.54297,-1.17187 1.54297,-3.35937 0,-2.2461 -1.60157,-3.4375 -1.58203,-1.21094 -4.55078,-1.21094 -1.62109,0 -3.47656,0.35156 -1.85547,0.35156 -4.08203,1.09375 v -3.51562 q 2.24609,-0.625 4.19922,-0.9375 1.97265,-0.3125 3.71094,-0.3125 4.49218,0 7.10937,2.05078 2.61719,2.03125 2.61719,5.50781 0,2.42187 -1.38672,4.10156 -1.38672,1.66016 -3.94531,2.30469 z"
         id="path19519" />
    </g>
    <g
       aria-label="4"
       transform="matrix(0.26458333,0,0,0.26458333,-8.1445939,3.5230573)"
       id="text11000"
       style="font-size:40px;line-height:1.25;white-space:pre;shape-inside:url(#rect11002)">
      <path
         d="m 143.69336,545.61914 -9.96094,15.56641 h 9.96094 z m -1.03516,-3.4375 h 4.96094 v 19.00391 h 4.16016 v 3.28125 h -4.16016 v 6.875 h -3.92578 v -6.875 H 130.5293 v -3.8086 z"
         id="path19497" />
    </g>
    <g
       aria-label="5"
       transform="matrix(0.26458333,0,0,0.26458333,-8.1445939,3.5230573)"
       id="text12062"
       style="font-size:40px;line-height:1.25;white-space:pre;shape-inside:url(#rect12064)">
      <path
         d="m 139.49609,643.64453 h 15.48828 v 3.32031 h -11.875 v 7.14844 q 0.85938,-0.29297 1.71875,-0.42969 0.85938,-0.15625 1.71875,-0.15625 4.88282,0 7.73438,2.67578 2.85156,2.67579 2.85156,7.2461 0,4.70703 -2.92969,7.32422 -2.92968,2.59765 -8.26171,2.59765 -1.83594,0 -3.75,-0.3125 -1.89454,-0.3125 -3.92579,-0.9375 v -3.96484 q 1.75782,0.95703 3.63282,1.42578 1.875,0.46875 3.96484,0.46875 3.37891,0 5.35156,-1.77734 1.97266,-1.77735 1.97266,-4.82422 0,-3.04688 -1.97266,-4.82422 -1.97265,-1.77734 -5.35156,-1.77734 -1.58203,0 -3.16406,0.35156 -1.5625,0.35156 -3.20313,1.09375 z"
         id="path19475" />
    </g>
    <g
       aria-label="6"
       transform="matrix(0.26458333,0,0,0.26458333,-8.1445939,3.5230573)"
       id="text13894"
       style="font-size:40px;line-height:1.25;white-space:pre;shape-inside:url(#rect13896)">
      <path
         d="m 151.04687,746.54687 q -2.65625,0 -4.21875,1.81641 -1.54296,1.81641 -1.54296,4.98047 0,3.14453 1.54296,4.98047 1.5625,1.8164 4.21875,1.8164 2.65625,0 4.19922,-1.8164 1.5625,-1.83594 1.5625,-4.98047 0,-3.16406 -1.5625,-4.98047 -1.54297,-1.81641 -4.19922,-1.81641 z m 7.83204,-12.36328 v 3.59375 q -1.48438,-0.70312 -3.00782,-1.07422 -1.5039,-0.37109 -2.98828,-0.37109 -3.90625,0 -5.97656,2.63672 -2.05078,2.63672 -2.34375,7.96875 1.15234,-1.69922 2.89062,-2.59766 1.73829,-0.91797 3.82813,-0.91797 4.39453,0 6.93359,2.67579 2.5586,2.65625 2.5586,7.24609 0,4.49219 -2.65625,7.20703 -2.65625,2.71484 -7.07032,2.71484 -5.05859,0 -7.73437,-3.86718 -2.67578,-3.88672 -2.67578,-11.25 0,-6.91407 3.28125,-11.01563 3.28125,-4.12109 8.80859,-4.12109 1.48438,0 2.98828,0.29297 1.52344,0.29297 3.16407,0.8789 z"
         id="path19258" />
    </g>
    <circle
       id="path19312"
       style="fill:#000000;stroke:#000000;stroke-width:0.264583"
       cx="33.93858"
       cy="201.69676"
       r="0.002978924" />
    <circle
       id="path19314"
       style="fill:#000000;stroke:#000000;stroke-width:0.264583"
       cx="33.93858"
       cy="201.69676"
       r="0.002978924" />
    <circle
       id="path19316"
       style="fill:#000000;stroke:#000000;stroke-width:0.264583"
       cx="33.93858"
       cy="201.69676"
       r="0.002978924" />
    <circle
       id="path19318"
       style="fill:#000000;stroke:#000000;stroke-width:0.264583"
       cx="33.93858"
       cy="201.69676"
       r="0.002978924" />
    <g
       aria-label="1"
       transform="matrix(0.26458333,0,0,0.26458333,14.919228,-25.359078)"
       id="text3692-3"
       style="font-size:40px;line-height:1.25;white-space:pre;shape-inside:url(#rect3694)">
      <path
         d="m 130.97266,199.71484 h 6.44531 v -22.24609 l -7.01172,1.40625 v -3.59375 l 6.97266,-1.40625 h 3.94531 v 25.83984 h 6.44531 v 3.32032 h -16.79687 z"
         id="path19563-6" />
    </g>
    <g
       aria-label="2"
       transform="matrix(0.26458333,0,0,0.26458333,32.372678,-56.844871)"
       id="text6434-7"
       style="font-size:40px;line-height:1.25;white-space:pre;shape-inside:url(#rect6436)">
      <path
         d="m 141.94336,317.0957 h 13.76953 v 3.32032 h -18.51562 v -3.32032 q 2.24609,-2.32422 6.11328,-6.23047 3.88672,-3.92578 4.88281,-5.05859 1.89453,-2.12891 2.63672,-3.59375 0.76172,-1.48437 0.76172,-2.91016 0,-2.32421 -1.64063,-3.78906 -1.62109,-1.46484 -4.23828,-1.46484 -1.85547,0 -3.92578,0.64453 -2.05078,0.64453 -4.39453,1.95312 v -3.98437 q 2.38281,-0.95703 4.45312,-1.44531 2.07032,-0.48828 3.78907,-0.48828 4.53125,0 7.22656,2.26562 2.69531,2.26563 2.69531,6.05469 0,1.79687 -0.68359,3.41797 -0.66407,1.60156 -2.44141,3.78906 -0.48828,0.56641 -3.10547,3.28125 -2.61719,2.69531 -7.38281,7.55859 z"
         id="path19541-5" />
    </g>
    <g
       aria-label="3"
       transform="matrix(0.26458333,0,0,0.26458333,56.020559,-86.90244)"
       id="text8926-3"
       style="font-size:40px;line-height:1.25;white-space:pre;shape-inside:url(#rect8928)">
      <path
         d="m 139.81055,419.50586 q 2.83203,0.60547 4.41406,2.51953 1.60156,1.91406 1.60156,4.72656 0,4.31641 -2.96875,6.67969 -2.96875,2.36328 -8.4375,2.36328 -1.83594,0 -3.78906,-0.37109 -1.93359,-0.35156 -4.00391,-1.07422 v -3.80859 q 1.64063,0.95703 3.59375,1.44531 1.95313,0.48828 4.08203,0.48828 3.71094,0 5.64454,-1.46484 1.95312,-1.46485 1.95312,-4.25782 0,-2.57812 -1.81641,-4.02343 -1.79687,-1.46485 -5.01953,-1.46485 h -3.39843 v -3.24219 h 3.55468 q 2.91016,0 4.45313,-1.15234 1.54297,-1.17187 1.54297,-3.35937 0,-2.2461 -1.60157,-3.4375 -1.58203,-1.21094 -4.55078,-1.21094 -1.62109,0 -3.47656,0.35156 -1.85547,0.35156 -4.08203,1.09375 v -3.51562 q 2.24609,-0.625 4.19922,-0.9375 1.97265,-0.3125 3.71094,-0.3125 4.49218,0 7.10937,2.05078 2.61719,2.03125 2.61719,5.50781 0,2.42187 -1.38672,4.10156 -1.38672,1.66016 -3.94531,2.30469 z"
         id="path19519-5" />
    </g>
    <g
       aria-label="4"
       transform="matrix(0.26458333,0,0,0.26458333,70.733838,-122.15263)"
       id="text11000-6"
       style="font-size:40px;line-height:1.25;white-space:pre;shape-inside:url(#rect11002)">
      <path
         d="m 143.69336,545.61914 -9.96094,15.56641 h 9.96094 z m -1.03516,-3.4375 h 4.96094 v 19.00391 h 4.16016 v 3.28125 h -4.16016 v 6.875 h -3.92578 v -6.875 H 130.5293 v -3.8086 z"
         id="path19497-2" />
    </g>
    <g
       aria-label="5"
       transform="matrix(0.26458333,0,0,0.26458333,85.672073,-147.68864)"
       id="text12062-9"
       style="font-size:40px;line-height:1.25;white-space:pre;shape-inside:url(#rect12064)">
      <path
         d="m 139.49609,643.64453 h 15.48828 v 3.32031 h -11.875 v 7.14844 q 0.85938,-0.29297 1.71875,-0.42969 0.85938,-0.15625 1.71875,-0.15625 4.88282,0 7.73438,2.67578 2.85156,2.67579 2.85156,7.2461 0,4.70703 -2.92969,7.32422 -2.92968,2.59765 -8.26171,2.59765 -1.83594,0 -3.75,-0.3125 -1.89454,-0.3125 -3.92579,-0.9375 v -3.96484 q 1.75782,0.95703 3.63282,1.42578 1.875,0.46875 3.96484,0.46875 3.37891,0 5.35156,-1.77734 1.97266,-1.77735 1.97266,-4.82422 0,-3.04688 -1.97266,-4.82422 -1.97265,-1.77734 -5.35156,-1.77734 -1.58203,0 -3.16406,0.35156 -1.5625,0.35156 -3.20313,1.09375 z"
         id="path19475-1" />
    </g>
    <g
       aria-label="6"
       transform="matrix(0.26458333,0,0,0.26458333,103.18449,-170.05939)"
       id="text13894-2"
       style="font-size:40px;line-height:1.25;white-space:pre;shape-inside:url(#rect13896)">
      <path
         d="m 151.04687,746.54687 q -2.65625,0 -4.21875,1.81641 -1.54296,1.81641 -1.54296,4.98047 0,3.14453 1.54296,4.98047 1.5625,1.8164 4.21875,1.8164 2.65625,0 4.19922,-1.8164 1.5625,-1.83594 1.5625,-4.98047 0,-3.16406 -1.5625,-4.98047 -1.54297,-1.81641 -4.19922,-1.81641 z m 7.83204,-12.36328 v 3.59375 q -1.48438,-0.70312 -3.00782,-1.07422 -1.5039,-0.37109 -2.98828,-0.37109 -3.90625,0 -5.97656,2.63672 -2.05078,2.63672 -2.34375,7.96875 1.15234,-1.69922 2.89062,-2.59766 1.73829,-0.91797 3.82813,-0.91797 4.39453,0 6.93359,2.67579 2.5586,2.65625 2.5586,7.24609 0,4.49219 -2.65625,7.20703 -2.65625,2.71484 -7.07032,2.71484 -5.05859,0 -7.73437,-3.86718 -2.67578,-3.88672 -2.67578,-11.25 0,-6.91407 3.28125,-11.01563 3.28125,-4.12109 8.80859,-4.12109 1.48438,0 2.98828,0.29297 1.52344,0.29297 3.16407,0.8789 z"
         id="path19258-7" />
    </g>
    <circle
       id="path19312-0"
       style="fill:#000000;stroke:#000000;stroke-width:0.264583"
       cx="145.26767"
       cy="28.114309"
       r="0.002978924" />
    <circle
       id="path19314-9"
       style="fill:#000000;stroke:#000000;stroke-width:0.264583"
       cx="145.26767"
       cy="28.114309"
       r="0.002978924" />
    <circle
       id="path19316-3"
       style="fill:#000000;stroke:#000000;stroke-width:0.264583"
       cx="145.26767"
       cy="28.114309"
       r="0.002978924" />
    <circle
       id="path19318-6"
       style="fill:#000000;stroke:#000000;stroke-width:0.264583"
       cx="145.26767"
       cy="28.114309"
       r="0.002978924" />
  </g>
</svg>
