0
SECTION
2
HEADER
9
$ACADVER
1
AC1009
0
ENDSEC
0
SECTION
2
TABLES
0
ENDSEC
0
SECTION
2
BLOCKS
0
ENDSEC
0
SECTION
2
ENTITIES
0
POLYLINE
8
0
66
1
70
1
0
VERTEX
8
0
10
0.000000
20
0.000000
0
VERTEX
8
0
10
194.000000
20
0.000000
0
VERTEX
8
0
10
194.000000
20
194.000000
0
VERTEX
8
0
10
0.000000
20
194.000000
0
SEQEND
0
POLYLINE
8
0
66
1
70
1
0
VERTEX
8
0
10
4.000000
20
4.000000
0
VERTEX
8
0
10
30.000000
20
4.000000
0
VERTEX
8
0
10
30.000000
20
30.000000
0
VERTEX
8
0
10
4.000000
20
30.000000
0
SEQEND
0
POLYLINE
8
0
66
1
70
1
0
VERTEX
8
0
10
36.000000
20
4.000000
0
VERTEX
8
0
10
62.000000
20
4.000000
0
VERTEX
8
0
10
62.000000
20
30.000000
0
VERTEX
8
0
10
36.000000
20
30.000000
0
SEQEND
0
POLYLINE
8
0
66
1
70
1
0
VERTEX
8
0
10
68.000000
20
4.000000
0
VERTEX
8
0
10
94.000000
20
4.000000
0
VERTEX
8
0
10
94.000000
20
30.000000
0
VERTEX
8
0
10
68.000000
20
30.000000
0
SEQEND
0
POLYLINE
8
0
66
1
70
1
0
VERTEX
8
0
10
100.000000
20
4.000000
0
VERTEX
8
0
10
126.000000
20
4.000000
0
VERTEX
8
0
10
126.000000
20
30.000000
0
VERTEX
8
0
10
100.000000
20
30.000000
0
SEQEND
0
POLYLINE
8
0
66
1
70
1
0
VERTEX
8
0
10
132.000000
20
4.000000
0
VERTEX
8
0
10
158.000000
20
4.000000
0
VERTEX
8
0
10
158.000000
20
30.000000
0
VERTEX
8
0
10
132.000000
20
30.000000
0
SEQEND
0
POLYLINE
8
0
66
1
70
1
0
VERTEX
8
0
10
164.000000
20
4.000000
0
VERTEX
8
0
10
190.000000
20
4.000000
0
VERTEX
8
0
10
190.000000
20
30.000000
0
VERTEX
8
0
10
164.000000
20
30.000000
0
SEQEND
0
POLYLINE
8
0
66
1
70
1
0
VERTEX
8
0
10
4.000000
20
36.000000
0
VERTEX
8
0
10
30.000000
20
36.000000
0
VERTEX
8
0
10
30.000000
20
62.000000
0
VERTEX
8
0
10
4.000000
20
62.000000
0
SEQEND
0
POLYLINE
8
0
66
1
70
1
0
VERTEX
8
0
10
36.000000
20
36.000000
0
VERTEX
8
0
10
62.000000
20
36.000000
0
VERTEX
8
0
10
62.000000
20
62.000000
0
VERTEX
8
0
10
36.000000
20
62.000000
0
SEQEND
0
POLYLINE
8
0
66
1
70
1
0
VERTEX
8
0
10
68.000000
20
36.000000
0
VERTEX
8
0
10
94.000000
20
36.000000
0
VERTEX
8
0
10
94.000000
20
62.000000
0
VERTEX
8
0
10
68.000000
20
62.000000
0
SEQEND
0
POLYLINE
8
0
66
1
70
1
0
VERTEX
8
0
10
100.000000
20
36.000000
0
VERTEX
8
0
10
126.000000
20
36.000000
0
VERTEX
8
0
10
126.000000
20
62.000000
0
VERTEX
8
0
10
100.000000
20
62.000000
0
SEQEND
0
POLYLINE
8
0
66
1
70
1
0
VERTEX
8
0
10
132.000000
20
36.000000
0
VERTEX
8
0
10
158.000000
20
36.000000
0
VERTEX
8
0
10
158.000000
20
62.000000
0
VERTEX
8
0
10
132.000000
20
62.000000
0
SEQEND
0
POLYLINE
8
0
66
1
70
1
0
VERTEX
8
0
10
164.000000
20
36.000000
0
VERTEX
8
0
10
190.000000
20
36.000000
0
VERTEX
8
0
10
190.000000
20
62.000000
0
VERTEX
8
0
10
164.000000
20
62.000000
0
SEQEND
0
POLYLINE
8
0
66
1
70
1
0
VERTEX
8
0
10
4.000000
20
68.000000
0
VERTEX
8
0
10
30.000000
20
68.000000
0
VERTEX
8
0
10
30.000000
20
94.000000
0
VERTEX
8
0
10
4.000000
20
94.000000
0
SEQEND
0
POLYLINE
8
0
66
1
70
1
0
VERTEX
8
0
10
36.000000
20
68.000000
0
VERTEX
8
0
10
62.000000
20
68.000000
0
VERTEX
8
0
10
62.000000
20
94.000000
0
VERTEX
8
0
10
36.000000
20
94.000000
0
SEQEND
0
POLYLINE
8
0
66
1
70
1
0
VERTEX
8
0
10
68.000000
20
68.000000
0
VERTEX
8
0
10
94.000000
20
68.000000
0
VERTEX
8
0
10
94.000000
20
94.000000
0
VERTEX
8
0
10
68.000000
20
94.000000
0
SEQEND
0
POLYLINE
8
0
66
1
70
1
0
VERTEX
8
0
10
100.000000
20
68.000000
0
VERTEX
8
0
10
126.000000
20
68.000000
0
VERTEX
8
0
10
126.000000
20
94.000000
0
VERTEX
8
0
10
100.000000
20
94.000000
0
SEQEND
0
POLYLINE
8
0
66
1
70
1
0
VERTEX
8
0
10
132.000000
20
68.000000
0
VERTEX
8
0
10
158.000000
20
68.000000
0
VERTEX
8
0
10
158.000000
20
94.000000
0
VERTEX
8
0
10
132.000000
20
94.000000
0
SEQEND
0
POLYLINE
8
0
66
1
70
1
0
VERTEX
8
0
10
164.000000
20
68.000000
0
VERTEX
8
0
10
190.000000
20
68.000000
0
VERTEX
8
0
10
190.000000
20
94.000000
0
VERTEX
8
0
10
164.000000
20
94.000000
0
SEQEND
0
POLYLINE
8
0
66
1
70
1
0
VERTEX
8
0
10
4.000000
20
100.000000
0
VERTEX
8
0
10
30.000000
20
100.000000
0
VERTEX
8
0
10
30.000000
20
126.000000
0
VERTEX
8
0
10
4.000000
20
126.000000
0
SEQEND
0
POLYLINE
8
0
66
1
70
1
0
VERTEX
8
0
10
36.000000
20
100.000000
0
VERTEX
8
0
10
62.000000
20
100.000000
0
VERTEX
8
0
10
62.000000
20
126.000000
0
VERTEX
8
0
10
36.000000
20
126.000000
0
SEQEND
0
POLYLINE
8
0
66
1
70
1
0
VERTEX
8
0
10
68.000000
20
100.000000
0
VERTEX
8
0
10
94.000000
20
100.000000
0
VERTEX
8
0
10
94.000000
20
126.000000
0
VERTEX
8
0
10
68.000000
20
126.000000
0
SEQEND
0
POLYLINE
8
0
66
1
70
1
0
VERTEX
8
0
10
100.000000
20
100.000000
0
VERTEX
8
0
10
126.000000
20
100.000000
0
VERTEX
8
0
10
126.000000
20
126.000000
0
VERTEX
8
0
10
100.000000
20
126.000000
0
SEQEND
0
POLYLINE
8
0
66
1
70
1
0
VERTEX
8
0
10
132.000000
20
100.000000
0
VERTEX
8
0
10
158.000000
20
100.000000
0
VERTEX
8
0
10
158.000000
20
126.000000
0
VERTEX
8
0
10
132.000000
20
126.000000
0
SEQEND
0
POLYLINE
8
0
66
1
70
1
0
VERTEX
8
0
10
164.000000
20
100.000000
0
VERTEX
8
0
10
190.000000
20
100.000000
0
VERTEX
8
0
10
190.000000
20
126.000000
0
VERTEX
8
0
10
164.000000
20
126.000000
0
SEQEND
0
POLYLINE
8
0
66
1
70
1
0
VERTEX
8
0
10
4.000000
20
132.000000
0
VERTEX
8
0
10
30.000000
20
132.000000
0
VERTEX
8
0
10
30.000000
20
158.000000
0
VERTEX
8
0
10
4.000000
20
158.000000
0
SEQEND
0
POLYLINE
8
0
66
1
70
1
0
VERTEX
8
0
10
36.000000
20
132.000000
0
VERTEX
8
0
10
62.000000
20
132.000000
0
VERTEX
8
0
10
62.000000
20
158.000000
0
VERTEX
8
0
10
36.000000
20
158.000000
0
SEQEND
0
POLYLINE
8
0
66
1
70
1
0
VERTEX
8
0
10
68.000000
20
132.000000
0
VERTEX
8
0
10
94.000000
20
132.000000
0
VERTEX
8
0
10
94.000000
20
158.000000
0
VERTEX
8
0
10
68.000000
20
158.000000
0
SEQEND
0
POLYLINE
8
0
66
1
70
1
0
VERTEX
8
0
10
100.000000
20
132.000000
0
VERTEX
8
0
10
126.000000
20
132.000000
0
VERTEX
8
0
10
126.000000
20
158.000000
0
VERTEX
8
0
10
100.000000
20
158.000000
0
SEQEND
0
POLYLINE
8
0
66
1
70
1
0
VERTEX
8
0
10
132.000000
20
132.000000
0
VERTEX
8
0
10
158.000000
20
132.000000
0
VERTEX
8
0
10
158.000000
20
158.000000
0
VERTEX
8
0
10
132.000000
20
158.000000
0
SEQEND
0
POLYLINE
8
0
66
1
70
1
0
VERTEX
8
0
10
164.000000
20
132.000000
0
VERTEX
8
0
10
190.000000
20
132.000000
0
VERTEX
8
0
10
190.000000
20
158.000000
0
VERTEX
8
0
10
164.000000
20
158.000000
0
SEQEND
0
POLYLINE
8
0
66
1
70
1
0
VERTEX
8
0
10
4.000000
20
164.000000
0
VERTEX
8
0
10
30.000000
20
164.000000
0
VERTEX
8
0
10
30.000000
20
190.000000
0
VERTEX
8
0
10
4.000000
20
190.000000
0
SEQEND
0
POLYLINE
8
0
66
1
70
1
0
VERTEX
8
0
10
36.000000
20
164.000000
0
VERTEX
8
0
10
62.000000
20
164.000000
0
VERTEX
8
0
10
62.000000
20
190.000000
0
VERTEX
8
0
10
36.000000
20
190.000000
0
SEQEND
0
POLYLINE
8
0
66
1
70
1
0
VERTEX
8
0
10
68.000000
20
164.000000
0
VERTEX
8
0
10
94.000000
20
164.000000
0
VERTEX
8
0
10
94.000000
20
190.000000
0
VERTEX
8
0
10
68.000000
20
190.000000
0
SEQEND
0
POLYLINE
8
0
66
1
70
1
0
VERTEX
8
0
10
100.000000
20
164.000000
0
VERTEX
8
0
10
126.000000
20
164.000000
0
VERTEX
8
0
10
126.000000
20
190.000000
0
VERTEX
8
0
10
100.000000
20
190.000000
0
SEQEND
0
POLYLINE
8
0
66
1
70
1
0
VERTEX
8
0
10
132.000000
20
164.000000
0
VERTEX
8
0
10
158.000000
20
164.000000
0
VERTEX
8
0
10
158.000000
20
190.000000
0
VERTEX
8
0
10
132.000000
20
190.000000
0
SEQEND
0
POLYLINE
8
0
66
1
70
1
0
VERTEX
8
0
10
164.000000
20
164.000000
0
VERTEX
8
0
10
190.000000
20
164.000000
0
VERTEX
8
0
10
190.000000
20
190.000000
0
VERTEX
8
0
10
164.000000
20
190.000000
0
SEQEND
0
ENDSEC
0
EOF
