<?xml version="1.0" encoding="UTF-8" standalone="no"?>
<!-- Created with Inkscape (http://www.inkscape.org/) -->

<svg
   width="210mm"
   height="297mm"
   viewBox="0 0 210 297"
   version="1.1"
   id="svg32109"
   inkscape:version="1.1.2 (0a00cf5339, 2022-02-04)"
   sodipodi:docname="Herzmuschel-v3..svg"
   xmlns:inkscape="http://www.inkscape.org/namespaces/inkscape"
   xmlns:sodipodi="http://sodipodi.sourceforge.net/DTD/sodipodi-0.dtd"
   xmlns="http://www.w3.org/2000/svg"
   xmlns:svg="http://www.w3.org/2000/svg">
  <sodipodi:namedview
     id="namedview32111"
     pagecolor="#ffffff"
     bordercolor="#666666"
     borderopacity="1.0"
     inkscape:pageshadow="2"
     inkscape:pageopacity="0.0"
     inkscape:pagecheckerboard="0"
     inkscape:document-units="mm"
     showgrid="false"
     inkscape:zoom="0.73940797"
     inkscape:cx="396.26297"
     inkscape:cy="561.25984"
     inkscape:window-width="1920"
     inkscape:window-height="1012"
     inkscape:window-x="1920"
     inkscape:window-y="1080"
     inkscape:window-maximized="1"
     inkscape:current-layer="layer1" />
  <defs
     id="defs32106" />
  <g
     inkscape:label="Ebene 1"
     inkscape:groupmode="layer"
     id="layer1">
    <path
       style="display:inline;fill:none;stroke:#fe0000;stroke-width:0.264583px;stroke-linecap:butt;stroke-linejoin:miter;stroke-opacity:1"
       d="m 72.780247,18.302118 c 0.89957,-0.226948 0.990806,-0.219539 0.990806,-0.219539 0,0 -0.649604,1.956131 -1.11049,3.685424 -0.460886,1.729292 -1.718994,7.413292 -1.835289,7.678612 -0.06839,0.156037 -2.372251,13.620509 -2.445278,14.080989 -0.07949,0.501208 -0.273429,1.684454 -0.273429,1.684454 l -0.346275,1.893593 -0.582893,3.480007 -0.644697,4.500515 -0.726019,4.815284 -0.681139,5.22764 -1.256392,8.543629 -1.464538,9.734658 -3.582278,22.403566 c -1.556395,8.27587 -3.187406,16.57982 -5.093294,24.98717 -0.280425,0.81068 -0.231192,2.55898 -1.283589,2.90957 -2.17937,0.0904 -2.506863,-0.72611 -3.734386,-1.63195 -1.069504,-1.96433 -0.773546,-1.67323 -1.160318,-2.50985 -1.284676,-1.3263 -1.947462,-1.55847 -3.088109,-2.1369 l -1.530185,-0.0501 -1.34568,0.5499 c -1.405089,-0.42391 -1.673177,-0.85038 -2.230962,-1.27619 -0.756028,-0.4716 -0.992593,-0.88577 -1.399963,-1.31882 l 5.97844,-14.67347 C 48.040228,97.804819 52.48144,85.122033 55.902289,71.913632 l 8.329385,-31.346563 3.021671,-9.77752 3.571563,-9.240535 c 0.578955,-1.255204 1.164884,-2.49385 1.955339,-3.246886 z"
       id="path14353"
       sodipodi:nodetypes="ccsssccccccccccccccccccccccccc" />
    <path
       style="display:inline;fill:none;stroke:#ff0000;stroke-width:0.264583px;stroke-linecap:butt;stroke-linejoin:miter;stroke-opacity:1"
       d="m 75.087173,17.680243 1.0521,-0.255193 -0.05587,16.808227 0.09442,12.302719 -0.321381,19.254488 -0.478248,17.229767 -1.12222,23.623779 -2.62958,30.29437 -2.062564,-0.98374 c -1.013987,-0.25071 -2.019771,-0.58919 -3.1152,0.0315 l -1.403524,1.0152 c -0.862334,0.18525 0.472751,0.76454 -3.183942,0.44869 -0.707378,-0.15346 -1.348808,-0.46959 -1.891382,-1.02954 l -0.617773,-1.60043 c -0.969306,-0.859 -2.042598,-1.63699 -3.579317,-2.05397 l -1.330067,0.0963 3.64068,-16.89868 4.495352,-26.075881 4.194179,-27.763381 2.348519,-15.986705 1.716188,-10.191035 c 0.70169,-3.623645 1.226894,-7.120617 2.275651,-11.264975 0.683806,-2.511864 1.322126,-4.710019 1.973979,-7.00151 z"
       id="path18036"
       sodipodi:nodetypes="ccccccccccccccccccccccc" />
    <path
       style="display:inline;fill:none;stroke:#ff0000;stroke-width:0.264583px;stroke-linecap:butt;stroke-linejoin:miter;stroke-opacity:1"
       d="m 77.188359,17.358569 v 0 0 c 0.724179,-0.13409 1.16076,0.175332 1.413199,0.475396 0.727556,2.169074 1.365384,4.042471 2.133953,7.17371 2.039251,7.506811 3.706513,15.279164 5.410171,23.025537 l 4.050006,23.470303 3.598471,28.740375 1.706729,19.44365 0.502481,15.37178 c -0.62533,-0.31879 -1.248688,-0.67811 -1.889207,-0.68487 -1.699007,-0.28319 -2.294062,0.12983 -2.981608,0.49631 -1.22034,0.85003 -1.422293,1.57673 -1.824784,2.28108 -1.261949,0.99126 -2.770041,1.51458 -5.193561,0.2976 -1.747336,-1.56958 -3.406921,-1.36891 -3.831306,-1.4028 -2.353025,0.10853 -2.517748,1.96928 -4.470659,2.52254 -1.137123,0.26698 -2.367338,0.0452 -2.964315,-0.3989 l 2.928023,-39.356041 1.388473,-38.8047 0.08546,-31.261494 z"
       id="path19955"
       sodipodi:nodetypes="ccccccccccccccccccccc" />
    <path
       style="display:inline;fill:none;stroke:#ff0000;stroke-width:0.264583px;stroke-linecap:butt;stroke-linejoin:miter;stroke-opacity:1"
       d="m 79.679641,17.414625 0.698968,-0.0097 c 0.202973,0.04829 0.371142,-0.01968 0.647063,0.272272 l 2.199335,3.091019 2.534158,4.910419 2.417945,5.781294 c 0.591316,1.42251 1.174406,2.957069 1.77641,4.233979 -0.07305,-0.76491 -0.248646,-1.711833 -0.795398,-3.317524 l -2.077556,-5.469988 -1.308682,-2.987044 -0.930704,-1.899123 -1.356251,-2.430948 -1.240108,-1.897541 1.239417,0.447834 c 0.767149,0.7642 1.341315,0.887549 2.310522,2.322739 l 3.600058,5.13318 3.661974,6.869927 3.988596,9.375259 2.691373,7.37082 2.529149,8.296532 2.05124,7.908565 2.22901,8.599347 4.69081,17.662436 3.7924,16.075861 3.16931,17.16504 c -1.03918,0.20411 -1.53981,0.0125 -3.37148,0.79893 -1.40383,0.84252 -1.4811,1.57754 -1.71463,2.32522 -0.0288,0.94908 -0.16815,1.83263 -0.96519,2.32636 -1.16645,0.82632 -1.79016,1.00797 -2.56895,1.37383 -1.55694,-0.38963 -2.58505,-0.61291 -3.23666,-0.71777 -0.90724,-0.26954 -1.86323,-0.14846 -3.41081,0.81226 -0.70896,0.68741 -1.16231,1.42604 -1.30123,2.22769 -0.43353,0.77745 -1.28498,1.23112 -2.343059,1.52469 -0.850386,0.20798 -1.622334,0.31609 -2.057974,-0.004 l -0.730565,-17.50675 c -0.47063,-6.37275 -1.0527,-12.19489 -1.560603,-18.339861 L 92.070843,76.172723 88.891554,56.522958 85.600283,40.186951 82.534286,26.688609 80.883678,20.450974 Z"
       id="path22486"
       sodipodi:nodetypes="cccccccccccccccccccccccccccccccccccccccccc" />
    <path
       style="display:inline;fill:none;stroke:#ff0000;stroke-width:0.264583px;stroke-linecap:butt;stroke-linejoin:miter;stroke-opacity:1"
       d="m 86.094699,18.851492 c 1.31143,0.990799 2.538039,2.089966 3.71844,3.248169 2.002892,2.423948 4.057564,4.76796 5.830802,7.546432 3.243249,4.710204 6.060939,9.629113 8.718969,14.626328 2.85539,5.624915 5.30299,11.570618 7.7712,17.500113 l 9.68702,23.135648 c 2.18383,5.687127 4.17611,11.338627 6.04308,16.966818 l 2.41203,8.32049 c 0.0186,1.28967 0.0749,2.58475 -1.31396,3.67219 -1.01757,0.63124 -1.91177,1.12525 -3.13812,1.98873 -0.685,0.81777 -1.36591,1.65018 -1.97133,2.75255 l -0.6955,2.5615 c -0.21622,0.97603 -0.80063,1.83131 -1.31919,2.3479 -0.88165,1.09893 -1.72719,1.5835 -2.53699,1.45989 l -2.72841,-14.49706 c -0.83748,-6.14419 -2.46315,-11.461271 -3.79997,-17.081461 -1.66299,-7.941986 -3.88658,-14.875766 -5.84123,-22.293208 -1.61704,-6.492613 -3.04771,-13.041459 -5.0982,-19.40328 -1.57633,-4.852366 -3.300953,-9.58131 -5.193866,-14.170183 -1.650189,-3.843731 -3.23046,-7.739498 -5.345433,-11.237325 -1.902754,-3.031473 -3.467964,-4.968455 -5.199342,-7.444241 z"
       id="path24994"
       sodipodi:nodetypes="ccccccccccccccccccccc" />
    <path
       style="display:inline;fill:none;stroke:#ff0000;stroke-width:0.264583px;stroke-linecap:butt;stroke-linejoin:miter;stroke-opacity:1"
       d="m 92.073928,22.799951 c 1.608818,1.51964 3.139367,2.851951 4.858668,4.636022 3.379904,4.050745 6.533594,8.862441 9.766954,13.406147 2.90883,4.048817 5.44418,8.336504 7.86474,12.697613 2.60362,5.068958 5.56668,10.182781 9.18721,15.378668 0.80707,1.386673 1.3696,2.164015 2.42807,4.177152 0.73131,1.230502 1.38036,2.415242 1.90835,3.532634 l 3.53893,7.009951 1.11058,1.961589 0.78929,1.044387 c 0.38346,1.124289 0.44243,2.263338 0.0206,3.424255 l -0.36847,2.21051 c -0.0433,0.97385 -0.2963,0.95679 -0.0101,3.4867 0.15979,1.28406 0.16769,1.29765 0.56389,4.559111 -0.0742,0.4734 -0.10929,0.88 -0.33706,1.61631 -0.37961,0.54272 -0.8016,0.93529 -1.08949,1.80293 -1.09045,1.84398 -1.14935,2.47778 -1.52397,3.48196 -1.12422,-3.76238 -2.20172,-6.97052 -3.27771,-10.160671 -0.79428,-2.87404 -1.68573,-4.98804 -2.53372,-7.44192 -1.98358,-5.135674 -3.91451,-9.63384 -5.85201,-14.211515 l -5.27373,-12.755833 c -1.21026,-3.393525 -2.77568,-6.577332 -4.15783,-9.941389 -1.29039,-3.211368 -2.68443,-5.793566 -4.03265,-8.653931 -1.41776,-3.110368 -3.10794,-5.808651 -4.72492,-8.617655 -0.966098,-1.68828 -2.293541,-3.812682 -4.822653,-7.387443 -1.210837,-1.883774 -2.627129,-3.564514 -4.032969,-5.255582 z"
       id="path26932"
       sodipodi:nodetypes="cccccccccccccccccccccccccc" />
    <path
       style="display:inline;fill:none;stroke:#ff0000;stroke-width:0.264583px;stroke-linecap:butt;stroke-linejoin:miter;stroke-opacity:1"
       d="m 110.0208,43.370796 4.17873,6.894903 c 1.53501,2.737403 2.98581,5.420876 3.88441,7.361962 l 3.52086,5.848628 3.42125,5.177615 2.97459,5.142212 c 1.63937,3.118825 2.58089,5.119946 3.75892,7.499865 0.11102,-0.884105 0.1399,-1.590892 0.65689,-3.35136 -0.001,-1.077756 -0.0688,-1.248216 -0.11917,-1.653889 -0.70816,-1.143207 -0.84357,-1.495222 -1.04242,-1.934875 -1.19124,-3.225767 -0.73349,-2.346185 -0.99694,-3.262127 0.0359,-5.774388 -1.74452,-6.516449 -2.097,-7.717907 -2.41685,-3.024875 -2.70273,-3.227927 -3.76096,-4.44965 l -8.32509,-8.984541 z"
       id="path28921"
       sodipodi:nodetypes="ccccccccccccccc" />
    <path
       style="display:inline;fill:none;stroke:#ff0000;stroke-width:0.264583px;stroke-linecap:butt;stroke-linejoin:miter;stroke-opacity:1"
       d="m 107.50146,38.75937 c 1.37318,0.420511 2.72948,0.995282 4.04328,1.958398 1.87409,1.141457 3.84411,3.053099 5.82165,5.02507 0.38814,0.681244 0.73225,1.217254 1.22809,2.253676 0.32747,0.534438 0.54969,1.143817 1.00177,1.589519 l 1.76735,1.583063 1.81222,1.845625 1.32498,1.353772 c 0.53305,1.080431 0.89443,2.563418 1.18301,4.217104 l -4.87042,-5.28225 -5.66895,-6.189184 z"
       id="path30816"
       sodipodi:nodetypes="cccccccccccc" />
    <path
       style="display:inline;fill:none;stroke:#ff0000;stroke-width:0.264583px;stroke-linecap:butt;stroke-linejoin:miter;stroke-opacity:1"
       d="m 42.060559,39.954104 c -2.165333,1.480689 -2.383898,2.34974 -3.155611,3.39258 -0.468562,0.633896 -1.642637,0.918168 -2.725755,2.28922 l -0.987993,2.208414 6.991845,-4.642787 c 2.2534,-1.868664 3.615115,-2.978361 5.704805,-4.61167 l 1.849073,-1.572063 c -2.617426,0.689289 -5.20348,1.820505 -7.676364,2.936306"
       id="path4579"
       sodipodi:nodetypes="cccccccc" />
    <path
       style="display:inline;fill:none;stroke:#ff0000;stroke-width:0.264583px;stroke-linecap:butt;stroke-linejoin:miter;stroke-opacity:1"
       d="m 50.158999,38.258133 -6.830292,5.556041 -3.852699,2.796606 -5.219281,3.082687 -3.220143,1.372809 -1.623018,1.774235 -1.733747,1.199243 -1.533896,2.143799 -2.496299,2.164805 -1.630836,1.622354 c -1.34123,1.165369 -1.422183,2.100196 -1.933363,3.113725 l -0.634089,6.833653 -0.850967,2.385336 c -1.584511,1.420538 -1.1873,1.901934 -1.832331,3.174972 l 0.309695,3.344595 1.667146,3.11974 0.111899,2.658059 9.194128,-13.112522 11.358535,-16.639925 c 4.131789,-6.730896 6.402886,-9.491168 6.402886,-9.491168 l 3.280042,-5.366286 1.06663,-1.732758"
       id="path6191"
       sodipodi:nodetypes="cccccccccccccccccccccc" />
    <path
       style="display:inline;fill:none;stroke:#fc0000;stroke-width:0.264583px;stroke-linecap:butt;stroke-linejoin:miter;stroke-opacity:1"
       d="m 58.339921,29.979097 c -1.893313,2.170923 -3.86642,3.924382 -5.641133,6.715793 L 47.726277,44.127491 34.48783,64.288918 22.383836,81.642009 c -1.661309,2.330007 -3.528347,4.525088 -4.856519,7.073583 -0.05151,1.369557 0.06394,2.673357 0.594041,3.630187 5.13e-4,-0.002 0.366796,0.82117 0.922708,1.35138 0.513259,0.48953 1.601186,1.04809 1.751179,1.31429 0.149994,0.2662 1.612518,4.04267 1.612518,4.04267 l 3.462128,-5.86453 5.978611,-10.98398 5.614654,-11.0144 4.065683,-8.162306 3.355673,-6.82231 3.957352,-8.069606 4.136141,-8.278284 3.327833,-6.063114 1.301968,-2.484197 z"
       id="path8939"
       sodipodi:nodetypes="cccccccssccccccccccc" />
    <path
       style="display:inline;fill:none;stroke:#ff0000;stroke-width:0.264583px;stroke-linecap:butt;stroke-linejoin:miter;stroke-opacity:1"
       d="M 21.885906,102.3213 C 27.578938,93.115569 33.056035,82.448968 33.056035,82.448968 l 10.386466,-20.572113 11.371945,-23.037684 4.757711,-8.528814 2.643209,-4.056834 2.585138,-3.124559 1.432025,-1.120576 -3.061353,5.843124 -5.658297,12.858417 -7.662818,19.99429 -6.75055,17.667504 -7.396816,18.707536 -5.141116,12.068961 -1.487652,3.18963 -2.228124,-3.58534 c -0.517619,-0.40789 -0.566341,-0.88262 -2.266443,-1.12195 -1.274217,0.15543 -1.644139,-1.00749 -2.040528,-2.13182 -0.787399,-0.75551 -0.657228,-2.00001 -0.652926,-3.17744 z"
       id="path10417"
       sodipodi:nodetypes="ccccccccccccccccccc" />
    <path
       style="display:inline;fill:none;stroke:#ff0000;stroke-width:0.264583px;stroke-linecap:butt;stroke-linejoin:miter;stroke-opacity:1"
       d="m 70.834237,19.060774 c -1.32723,0.03719 -2.406977,1.819543 -2.406977,1.819543 -0.01192,-0.02697 -2.300509,3.529591 -2.703433,4.267462 -1.682541,3.08122 -6.087558,13.650306 -6.087558,13.650306 -2.048948,4.852004 -3.640764,8.921601 -4.593809,11.185168 -1.274171,3.026267 -4.459757,11.893019 -4.459757,11.893019 l -5.002736,13.188635 -9.498867,23.994652 -4.963172,11.324771 -2.257576,4.86212 0.109823,1.211 1.368327,2.37285 1.154238,0.81245 1.969633,-0.20205 1.420526,0.57933 2.345471,1.97809 0.589317,1.08621 c 3.255212,-7.83702 6.275764,-15.98994 9.042056,-24.485161 3.704082,-11.464482 7.042816,-22.944534 9.999631,-34.440855 l 5.371252,-20.258993 c 1.523802,-5.163664 2.829523,-10.45619 4.881958,-15.824405 0.856324,-2.233288 1.463218,-4.478524 2.569927,-6.699819 0.943676,-1.929439 0.767817,-1.542882 1.151726,-2.314323 z"
       id="path10912"
       sodipodi:nodetypes="ccssscccccccccccccccccc" />
  </g>
</svg>
