<?xml version="1.0" encoding="UTF-8" standalone="no"?>
<!-- Created with Inkscape (http://www.inkscape.org/) -->

<svg
   width="210mm"
   height="297mm"
   viewBox="0 0 210 297"
   version="1.1"
   id="svg161"
   inkscape:version="1.1.2 (0a00cf5339, 2022-02-04)"
   sodipodi:docname="Herzmuschel.svg"
   xmlns:inkscape="http://www.inkscape.org/namespaces/inkscape"
   xmlns:sodipodi="http://sodipodi.sourceforge.net/DTD/sodipodi-0.dtd"
   xmlns="http://www.w3.org/2000/svg"
   xmlns:svg="http://www.w3.org/2000/svg">
  <sodipodi:namedview
     id="namedview163"
     pagecolor="#ffffff"
     bordercolor="#666666"
     borderopacity="1.0"
     inkscape:pageshadow="2"
     inkscape:pageopacity="0.0"
     inkscape:pagecheckerboard="0"
     inkscape:document-units="mm"
     showgrid="false"
     inkscape:zoom="1.0456808"
     inkscape:cx="169.74588"
     inkscape:cy="114.75778"
     inkscape:window-width="1920"
     inkscape:window-height="1012"
     inkscape:window-x="1920"
     inkscape:window-y="1080"
     inkscape:window-maximized="1"
     inkscape:current-layer="layer1" />
  <defs
     id="defs158" />
  <g
     inkscape:label="Ebene 1"
     inkscape:groupmode="layer"
     id="layer1"
     style="display:inline">
    <path
       style="fill:#000000;fill-opacity:1;stroke:none;stroke-width:5.86502;stroke-miterlimit:4;stroke-dasharray:none;stroke-opacity:1"
       d="m 64.892716,130.27685 c -0.674696,-0.0512 -1.15699,-0.17827 -1.694239,-0.44531 -0.469997,-0.23365 -0.613423,-0.35939 -1.126065,-0.9872 -0.474,-0.58051 -0.910683,-0.90598 -1.548362,-1.15402 -0.944515,-0.36742 -1.995596,-0.41813 -2.709303,-0.13054 -0.197844,0.0795 -0.617801,0.35543 -0.948081,0.62241 -1.017073,0.82221 -1.644444,1.03787 -2.98611,1.02655 -0.775832,-0.006 -0.968947,-0.0318 -1.601604,-0.20777 -1.463212,-0.40756 -2.129439,-0.93711 -2.714896,-2.15775 -0.179704,-0.37456 -0.39281,-0.77436 -0.473749,-0.88856 -0.368229,-0.51943 -1.870722,-1.27276 -2.883047,-1.44551 -0.545306,-0.0929 -0.910514,-0.009 -1.696179,0.38494 -1.047302,0.52662 -1.701899,0.63427 -2.553233,0.41995 -0.497568,-0.12522 -1.37573,-0.56787 -2.024859,-1.02059 -1.151834,-0.80333 -1.534974,-1.28603 -2.111386,-2.66013 -0.260443,-0.62085 -0.376228,-0.81787 -0.632411,-1.07606 -0.424804,-0.42812 -1.167391,-0.95383 -1.799137,-1.27362 -0.685332,-0.34693 -1.104523,-0.3649 -1.739015,-0.0744 -0.402062,0.18404 -0.470153,0.19461 -1.216819,0.19189 -0.697992,-0.002 -0.838794,-0.0227 -1.198317,-0.16932 -1.314596,-0.53681 -2.895189,-1.91051 -3.353297,-2.91432 -0.195924,-0.42935 -0.233822,-0.59575 -0.318126,-1.39712 -0.06716,-0.63855 -0.137315,-1.00757 -0.235349,-1.23783 -0.241266,-0.56676 -1.697348,-1.98199 -2.439132,-2.37068 -0.408723,-0.21426 -0.393098,-0.21264 -1.612276,-0.15453 -0.849957,0.0409 -0.899953,0.035 -1.368331,-0.13287 -1.193995,-0.42981 -1.937828,-1.21777 -2.761943,-2.92565 -0.168196,-0.34856 -0.362637,-0.81613 -0.432054,-1.03901 -0.235211,-0.75491 -0.258229,-1.67911 -0.06074,-2.43828 0.03284,-0.12548 0.05955,-0.44511 0.05973,-0.71004 3.01e-4,-0.45769 -0.0162,-0.51469 -0.326496,-1.14126 -0.397323,-0.80174 -1.071549,-1.96657 -1.389275,-2.40017 -0.432014,-0.5896 -0.920797,-0.87546 -1.792842,-1.048551 -1.005591,-0.199471 -1.779716,-0.783487 -2.443034,-1.842646 -0.710193,-1.134065 -1.28814,-2.98612 -1.28814,-4.12796 0,-0.600163 0.105515,-1.102705 0.370674,-1.765575 0.2134,-0.533435 0.237757,-0.650251 0.237757,-1.140102 0,-0.657871 -0.117399,-1.142229 -0.584637,-2.41178 C 10.897658,86.401021 10.61218,85.96369 9.9194115,85.6145 9.4281107,85.366847 8.9289618,84.997411 8.666565,84.687201 8.1930783,84.127438 7.6242475,82.854872 7.3589621,81.761921 7.1546256,80.920058 7.0967549,79.620698 7.238004,79.046091 7.3800351,78.468171 7.6704333,77.751257 7.972726,77.232218 8.3900434,76.515634 8.4631449,76.174647 8.4607367,74.955995 8.4573972,73.206788 8.2093505,72.031137 7.68991,71.300702 6.9266798,70.227477 6.7174864,69.720954 6.5179756,68.463089 6.3862902,67.632983 6.384126,66.283638 6.5134414,65.630975 6.791311,64.22804 7.1438327,63.509919 8.0510917,62.498617 c 0.6853461,-0.763941 0.7642935,-0.965669 0.9612254,-2.456154 0.087356,-0.661204 0.2308199,-1.52385 0.3188207,-1.916994 0.1481296,-0.661755 0.1605644,-0.830566 0.1675449,-2.274394 0.00832,-1.667208 0.056607,-2.069994 0.3721567,-3.086672 0.3463236,-1.115752 0.8149826,-1.816668 2.1672516,-3.241159 1.15401,-1.215649 1.538838,-1.562615 2.637557,-2.378104 0.809801,-0.601071 1.414452,-1.243981 2.001282,-2.127981 0.90548,-1.364028 1.303678,-1.770993 2.236298,-2.28553 0.440747,-0.243156 0.574533,-0.364009 1.109571,-1.002132 0.90615,-1.080738 1.55949,-1.551274 2.377517,-1.712262 0.535437,-0.105371 0.973243,-0.410211 1.70601,-1.187769 0.694211,-0.736672 0.938984,-1.14565 1.280717,-2.139886 0.149012,-0.43353 0.335689,-0.906731 0.414865,-1.051604 0.194402,-0.355731 0.919681,-1.074153 1.603688,-1.588598 1.287275,-0.968163 1.294808,-0.975504 1.935002,-1.884679 1.362794,-1.935386 2.403078,-2.646086 6.243163,-4.265192 1.54567,-0.65171 2.801549,-1.100791 4.72465,-1.689456 1.601937,-0.490363 2.294526,-0.782167 2.529636,-1.065799 0.06683,-0.08076 0.589684,-0.593192 1.161688,-1.138776 0.572026,-0.545587 1.492447,-1.51354 2.045403,-2.151008 1.154894,-1.331417 2.31999,-2.555626 3.352812,-3.522903 0.395563,-0.370441 1.011556,-1.027186 1.368901,-1.459388 1.428348,-1.727589 1.930332,-2.27444 2.414114,-2.629929 0.267712,-0.19674 0.801546,-0.699857 1.186382,-1.118089 0.825327,-0.897007 1.222141,-1.247634 1.797058,-1.587935 0.232934,-0.137905 0.642658,-0.473808 0.910344,-0.746405 0.587777,-0.598561 0.863126,-0.805358 1.592797,-1.196327 0.30718,-0.1645892 0.753082,-0.4336736 0.990889,-0.5979905 0.578958,-0.4000632 0.987531,-0.5905136 1.45859,-0.6800122 0.235499,-0.044809 0.563196,-0.1748675 0.821337,-0.326163 0.693017,-0.4061006 1.188627,-0.5765001 1.876064,-0.6449985 0.413077,-0.041438 0.793652,-0.1270361 1.132977,-0.2557323 0.280972,-0.1065248 0.691684,-0.2124725 0.91259,-0.2354674 0.220987,-0.022891 0.607042,-0.088945 0.857997,-0.1467173 0.334827,-0.077013 0.828924,-0.1078932 1.855635,-0.1159343 0.769652,-0.00585 1.703146,-0.016536 2.07444,-0.022891 0.499582,-0.00875 0.977447,0.039492 1.837821,0.1851978 1.566332,0.2654723 2.184283,0.4310408 3.723256,0.997555 1.517612,0.5586541 1.868276,0.722375 2.737801,1.2783217 0.351278,0.224651 1.059168,0.6539039 1.572893,0.9539056 1.205265,0.7038274 1.95776,1.2546684 3.116576,2.2813624 0.516033,0.457246 1.376369,1.214399 1.911774,1.682589 1.352519,1.182772 2.407252,2.23459 3.417282,3.40798 1.067525,1.240104 1.363377,1.620041 2.890466,3.711753 0.67083,0.918844 1.423606,1.927705 1.672866,2.241902 0.709148,0.893949 1.58454,2.061269 2.162428,2.883617 l 0.52898,0.752756 0.560881,0.278332 c 0.308306,0.153046 1.206322,0.505246 1.99529,0.78261 1.566561,0.550737 2.349151,0.898926 3.304831,1.470402 1.46765,0.877596 2.69759,1.826962 4.36579,3.369786 0.35128,0.324944 0.91261,0.826865 1.24723,1.115362 1.21506,1.047586 1.9071,1.996446 2.65554,3.641079 0.53492,1.175466 0.7574,1.485536 1.4903,2.076799 0.32813,0.26483 0.93977,0.854094 1.35885,1.309439 0.4192,0.455352 1.11782,1.161556 1.55283,1.569363 1.14679,1.075054 1.42763,1.446808 1.88561,2.495815 0.35823,0.820288 0.60824,1.691195 0.82798,2.882377 0.2385,1.291897 0.40669,1.838717 0.82691,2.683932 0.46036,0.926326 0.78966,1.462542 1.41644,2.306888 1.25499,1.69054 1.69801,2.460162 2.02931,3.525431 0.34528,1.110174 0.41227,1.660586 0.39657,3.265262 l -0.0138,1.397131 0.28098,1.00723 c 0.15481,0.553991 0.35221,1.285029 0.43953,1.62457 0.10771,0.41885 0.23106,0.727848 0.38456,0.961072 0.12434,0.189095 0.32725,0.496082 0.4511,0.682318 0.68294,1.027624 0.75532,2.33736 0.25933,4.692418 -0.27684,1.315164 -0.34339,2.476024 -0.18489,3.237054 0.13266,0.635829 0.52222,1.483903 1.09225,2.376625 0.53705,0.841032 0.73545,1.421962 0.84217,2.465447 0.085,0.832862 0.0231,1.462764 -0.28335,2.810715 -0.26252,1.159089 -0.33783,2.023992 -0.33833,3.866197 0,1.792395 0.0656,2.524549 0.36979,4.121443 0.30549,1.603255 0.34115,2.043031 0.21348,2.623759 -0.15524,0.703906 -0.39656,1.238877 -0.99672,2.209708 -0.66583,1.076733 -1.0867,1.943263 -1.58195,3.256878 -0.68502,1.817226 -0.95485,3.014133 -0.86689,3.845343 0.12391,1.16979 -0.19546,2.4125 -0.88528,3.44484 -0.48326,0.72332 -0.85387,1.05835 -1.70189,1.53835 -1.90429,1.07794 -2.77585,1.92466 -3.83405,3.72498 -0.41695,0.70927 -0.55356,1.10789 -0.66163,1.93013 -0.14142,1.07749 -0.39099,1.7105 -0.99242,2.51713 -0.77972,1.04608 -1.67508,1.86013 -2.4286,2.20806 -0.66981,0.30926 -1.1443,0.39031 -2.60456,0.44492 -1.95507,0.0731 -2.70924,0.2852 -3.37309,0.94844 -0.41695,0.41664 -0.58346,0.81863 -0.69851,1.68685 -0.0739,0.55827 -0.1433,0.82154 -0.31757,1.20217 -0.51659,1.12952 -1.94037,2.15574 -3.62041,2.60951 -0.41088,0.11095 -0.6248,0.12963 -1.203549,0.10427 -0.643609,-0.0279 -0.787253,-0.0597 -1.677351,-0.37028 -1.471944,-0.51359 -2.286338,-0.51346 -3.294566,6.5e-4 -0.637873,0.32514 -0.890373,0.6154 -1.115732,1.28264 -0.2218,0.65639 -0.411825,1.02749 -0.747922,1.46077 -0.869763,1.12087 -3.048729,1.95914 -4.540877,1.74693 -0.720651,-0.10239 -1.202626,-0.26814 -2.23304,-0.76769 -1.273163,-0.61722 -1.975793,-0.73422 -2.897403,-0.48246 -0.97694,0.26684 -1.424988,0.61527 -1.835194,1.42696 -0.54762,1.0836 -1.255317,1.63155 -2.584074,2.00088 -0.702079,0.19506 -1.802649,0.26827 -2.390795,0.15887 -0.839064,-0.15615 -1.708501,-0.5536 -2.57234,-1.17623 -0.906272,-0.65317 -1.478518,-0.84716 -2.494647,-0.8457 -1.118928,0.002 -1.739187,0.22203 -2.143581,0.76201 -0.507026,0.67689 -0.865447,0.9973 -1.438519,1.28591 -0.95426,0.48059 -1.802324,0.63181 -3.021544,0.53882 z m 1.733952,-1.19648 c 0.234122,-0.0493 0.622992,-0.19344 0.863983,-0.32008 0.371293,-0.19513 0.50615,-0.31672 0.884555,-0.79697 0.245569,-0.31165 0.578144,-0.66137 0.739072,-0.77718 0.586776,-0.42222 1.572843,-0.63816 2.653403,-0.58116 1.102334,0.0584 1.733689,0.29421 2.85313,1.06695 1.539798,1.06279 2.651146,1.28868 4.101417,0.83355 1.056066,-0.33143 1.509756,-0.69202 1.898688,-1.50913 0.458988,-0.96409 1.283196,-1.6516 2.374621,-1.98051 0.383615,-0.11556 0.641938,-0.14597 1.244502,-0.14649 0.875123,-7.1e-4 1.249494,0.0876 2.052372,0.48376 0.286101,0.14117 0.53386,0.25654 0.550873,0.25654 0.04128,0 -0.02752,-2.69266 -0.141424,-5.49104 C 86.339949,111.0974 85.690498,101.71482 84.846719,93.313166 83.410496,79.011514 82.068141,68.59456 80.036148,55.980725 78.730453,47.875594 77.211546,39.818365 75.509657,31.969618 73.382826,22.160881 70.961388,12.386635 70.052288,9.9404802 69.800895,9.2640535 69.306342,8.2527423 69.125993,8.0463129 68.960362,7.8566342 68.507504,7.7512766 68.183999,7.827161 l -0.181644,0.04241 0.03503,13.788203 c 0.07775,30.288961 -0.415829,50.04292 -1.869403,74.806951 -0.482569,8.221345 -1.167798,16.637405 -2.370079,29.108955 -0.134106,1.39207 -0.244006,2.67081 -0.244006,2.84169 0,0.29363 0.01188,0.31749 0.228368,0.43513 0.675002,0.36781 1.769436,0.4562 2.843973,0.22968 z m -11.815101,-1.04195 c 0.558441,-0.13468 0.867585,-0.30348 1.472182,-0.80408 0.867955,-0.71864 1.340553,-0.90916 2.372807,-0.9565 1.23669,-0.0571 2.408522,0.27877 3.361444,0.96229 0.242629,0.17411 0.441161,0.29512 0.441161,0.26898 0,-0.0259 0.08232,-0.81414 0.182582,-1.7512 0.713495,-6.66168 1.660262,-17.87228 2.248877,-26.628675 0.753515,-11.209027 1.463614,-27.979725 1.766503,-41.718903 0.244881,-11.1097 0.344335,-26.585893 0.254951,-39.695511 -0.03565,-5.320423 -0.07637,-9.6847453 -0.08926,-9.6984962 -0.02377,-0.024318 -0.644622,0.081053 -0.845562,0.1435528 -0.146053,0.045264 -0.402568,0.7513968 -0.894763,2.4628904 -0.745664,2.592837 -1.230391,4.560688 -1.976894,8.025367 -1.708225,7.928399 -2.970573,15.518091 -5.425707,32.621314 -2.195385,15.293934 -3.312506,22.821949 -4.382739,29.534636 -1.520514,9.53704 -2.407716,14.805958 -3.468629,20.599515 -0.150557,0.82205 -0.342834,1.87477 -0.427338,2.33939 -0.444914,2.44559 -1.643311,8.49773 -2.123159,10.72213 -0.313561,1.45346 -1.886973,8.42326 -1.966342,8.71029 l -0.05504,0.19766 0.676554,-0.001 c 0.608856,-10e-4 0.734249,0.0208 1.253609,0.21244 0.771904,0.28578 1.832962,0.85634 2.326389,1.25101 0.459926,0.36795 0.735876,0.77722 1.024341,1.5194 0.233872,0.60192 0.525415,0.94193 1.076401,1.25559 0.324694,0.18475 1.063415,0.41483 1.566588,0.48778 0.45267,0.0655 1.228871,0.037 1.630695,-0.0597 z m 35.289098,-1.9369 c 1.468017,-0.39771 2.291048,-1.07765 2.648737,-2.18805 0.313373,-0.97293 0.717005,-1.49005 1.502363,-1.92487 0.77607,-0.42968 1.315915,-0.56683 2.21724,-0.56333 0.824827,0.002 1.118966,0.065 2.148041,0.45127 1.156971,0.43429 1.830294,0.43254 2.840654,-0.006 1.08611,-0.47293 2.01784,-1.2311 2.31286,-1.88199 0.0781,-0.17249 0.17145,-0.58447 0.22374,-0.98644 0.13542,-1.04532 0.34847,-1.53379 0.93983,-2.15587 0.6583,-0.69229 1.75185,-1.10806 3.27483,-1.24506 0.41695,-0.0376 0.76793,-0.0786 0.78,-0.0916 0.0532,-0.0558 -1.84467,-10.26583 -2.56643,-13.81219 C 104.31932,91.362296 102.48214,83.607044 99.633963,73.039041 96.806165,62.546915 96.043175,59.665187 95.427069,57.150767 95.059153,55.649666 94.679378,54.129071 94.582877,53.771665 94.4863,53.414291 94.226095,52.405407 94.004107,51.52976 93.231102,48.477476 92.930033,47.393908 91.954756,44.153928 89.192635,34.97815 84.842559,24.239841 81.424908,18.16085 80.097346,15.799471 78.599375,13.513973 77.208444,11.727563 76.246346,10.491926 74.68672,8.8513444 74.231779,8.5964434 73.911963,8.4170884 73.246938,8.1860111 73.051102,8.1860111 c -0.0369,0 0.09983,0.2255782 0.305053,0.5013289 2.088101,2.806548 4.838944,8.804188 6.565558,14.314728 0.539239,1.720954 0.957069,3.260652 0.85395,3.146942 -0.06843,-0.07555 -0.507088,-1.13725 -1.783284,-4.316637 C 77.686728,18.579564 77.267841,17.604158 76.299357,15.561545 74.95572,12.727651 73.702986,10.571183 72.543294,9.095764 71.846306,8.2089515 71.665538,8.0389819 71.30641,7.9324713 c -0.270401,-0.080177 -0.899411,-0.096642 -0.863776,-0.022372 0.787472,1.6349411 1.075093,2.5560107 2.331987,7.4682567 2.276443,8.896747 5.073228,21.776146 6.747433,31.072741 2.365,13.132285 4.24174,26.226542 5.719971,39.909362 1.504914,13.929491 2.296884,24.843161 2.728106,37.592501 l 0.07256,2.14442 0.273591,0.0759 c 0.464867,0.12911 1.144623,0.10168 1.784304,-0.0715 z M 43.36479,124.18216 c 0.213119,-0.0704 0.433355,-0.16536 0.489387,-0.21127 0.146285,-0.11971 0.869141,-3.15496 2.180552,-9.1553 1.163432,-5.32332 2.773073,-13.82116 4.196004,-22.15224 0.974808,-5.707306 3.159247,-19.614919 4.1031,-26.123046 0.18402,-1.268792 0.513968,-3.53506 0.733304,-5.036155 0.842222,-5.764877 1.076776,-7.393987 1.581106,-10.982079 2.846219,-20.249727 5.117045,-32.663775 7.395796,-40.430729 0.232434,-0.7926104 0.422834,-1.4618967 0.422834,-1.487304 0,-0.062318 -0.65326,0.022891 -0.79454,0.103704 -0.163442,0.093471 -0.841428,1.0467963 -1.201519,1.689701 -0.479066,0.855345 -1.588186,3.322011 -2.190456,4.871495 -2.913872,7.496702 -5.797676,17.261095 -10.536378,35.675503 -3.861071,15.003904 -6.241394,23.521607 -9.352339,33.466089 -1.626036,5.197865 -3.609219,11.099538 -5.360865,15.953261 -1.453962,4.02883 -2.953777,7.84749 -5.097661,12.97905 -0.548458,1.3128 -0.997197,2.43335 -0.997197,2.49013 0,0.1677 0.337172,0.64186 0.713775,1.00363 0.477628,0.45879 1.535367,1.20016 1.954374,1.36978 0.549753,0.22256 1.136337,0.19655 1.743004,-0.0775 0.44482,-0.2009 0.538695,-0.21958 1.094925,-0.21841 0.581866,10e-4 0.635956,0.0136 1.240039,0.28773 1.112377,0.50451 2.255161,1.35817 2.718899,2.031 0.152245,0.22094 0.373457,0.69029 0.537425,1.14043 0.153214,0.42073 0.361435,0.87223 0.462684,1.00343 0.257166,0.33325 1.201492,1.0594 1.857045,1.42801 0.912617,0.51314 1.425172,0.60587 2.106737,0.38098 z m 67.46264,-8.78958 c 0.58252,-0.18585 1.22597,-0.65572 1.8627,-1.36038 0.83,-0.9185 1.19846,-1.58042 1.30301,-2.3405 0.18765,-1.36603 0.33232,-1.81476 0.88635,-2.75764 0.45342,-0.7717 1.24487,-1.83755 1.70683,-2.2991 0.49346,-0.49303 0.87429,-0.76677 2.13114,-1.53158 0.56276,-0.34239 1.14106,-0.74476 1.28518,-0.89402 0.37436,-0.38779 0.66509,-0.88243 0.86897,-1.47904 0.14836,-0.43416 0.17701,-0.61677 0.17701,-1.12644 0,-0.33461 -0.0419,-0.84495 -0.0933,-1.13419 -0.10258,-0.577467 -0.61443,-2.524355 -1.00551,-3.824961 -3.43567,-11.423685 -4.99719,-15.806819 -9.09289,-25.523052 -0.69301,-1.644063 -1.47231,-3.500943 -1.73174,-4.126403 -0.25933,-0.625454 -1.05376,-2.526197 -1.76512,-4.223876 -1.73016,-4.128836 -1.55005,-3.694741 -3.31674,-7.992873 C 100.45302,46.043966 99.343808,43.449767 97.472335,39.410118 94.210582,32.369414 89.894846,24.786742 86.136376,19.492923 83.362195,15.585525 80.039062,11.734753 78.131492,10.217009 77.589501,9.7857737 76.955263,9.3785377 76.909683,9.4324797 c -0.0094,0.011219 0.35084,0.4738531 0.800801,1.0278483 2.107648,2.594306 4.327709,6.154823 6.311258,10.121882 2.146108,4.292089 5.076324,11.474561 7.257011,17.788186 1.797189,5.203305 2.855288,8.920897 4.984389,17.512837 0.825615,3.331601 1.324691,5.272011 1.938995,7.537994 0.24682,0.911379 0.836024,3.089928 1.308847,4.841211 0.472749,1.751282 1.088606,4.03218 1.368506,5.06865 1.38206,5.117868 2.48189,9.463846 3.65074,14.426159 1.93205,8.202408 3.17018,14.245693 5.23448,25.549323 l 0.40532,2.22054 0.2223,-0.0331 c 0.12198,-0.0181 0.31801,-0.0635 0.43497,-0.10129 z m -82.195749,-1.79725 c 0,-0.0318 0.495316,-1.26715 1.100711,-2.74553 2.163216,-5.28267 4.08801,-10.3591 5.720231,-15.086503 3.697905,-10.710324 6.664521,-20.500508 10.179607,-33.594092 1.198297,-4.463662 1.53507,-5.752232 3.502412,-13.401576 3.679421,-14.306171 6.126868,-22.808184 8.690363,-30.189048 1.350167,-3.887408 2.884498,-7.551342 3.697122,-8.8286316 0.0785,-0.1234306 0.134856,-0.2330811 0.125036,-0.243554 -0.0094,-0.010181 -0.199032,0.034564 -0.420645,0.1002023 -0.309057,0.091526 -0.485071,0.1956187 -0.75626,0.4472133 -1.340603,1.243675 -2.522406,2.99255 -4.248746,6.287434 -3.534368,6.745618 -7.35475,16.051601 -15.646321,38.112362 -5.428105,14.442124 -9.688459,25.445409 -12.794163,33.043699 -2.524749,6.176937 -3.530872,8.480149 -6.146725,14.071064 l -1.959957,4.18908 0.02815,0.46891 c 0.02314,0.38843 0.07589,0.57467 0.30708,1.08533 0.608368,1.34405 1.277537,2.21123 1.973514,2.55754 0.427437,0.21264 1.180615,0.2686 1.936505,0.1437 0.430484,-0.0713 0.533384,-0.0674 0.851768,0.0305 0.811239,0.25031 1.681805,0.89475 2.768488,2.0494 0.566961,0.60243 0.859621,1.03259 0.942525,1.38542 0.03784,0.16127 0.149474,0.24836 0.149474,0.11666 z m -8.208795,-12.17546 c 0.373545,-0.79522 0.700599,-1.475114 0.726759,-1.510839 0.091,-0.124312 2.316863,-5.047425 3.048235,-6.742011 1.653134,-3.830285 4.381069,-10.578561 6.744494,-16.68427 0.242098,-0.625453 0.878474,-2.263019 1.414148,-3.63903 0.53568,-1.37601 1.411374,-3.656902 1.945991,-5.068656 0.534616,-1.411741 1.158707,-3.049314 1.386878,-3.63903 0.591561,-1.528934 3.227146,-8.489267 4.318413,-11.404464 4.904964,-13.103259 8.931484,-23.316861 11.515388,-29.20972 1.824611,-4.161234 3.476905,-7.499553 5.014245,-10.13086 0.279784,-0.47897 0.500208,-0.879935 0.489762,-0.891075 -0.02752,-0.0297 -0.67793,0.518267 -1.189753,1.003215 -0.549872,0.52103 -2.172479,2.351555 -2.630936,2.968097 -1.084407,1.458307 -3.463668,5.259984 -4.920007,7.861403 -1.551445,2.771296 -3.486337,6.486867 -5.753536,11.048561 -1.853177,3.728664 -2.959453,5.979557 -7.665148,15.595848 -2.09064,4.272323 -3.979964,8.067688 -6.388772,12.834084 -0.243856,0.482464 -1.024514,2.032337 -1.734837,3.444085 -3.42888,6.814842 -7.291274,13.929331 -11.05983,20.372071 -0.919854,1.572589 -1.969918,3.336614 -2.333479,3.920073 -0.718768,1.153499 -0.816831,1.417778 -0.751699,2.025846 0.124836,1.165645 0.899208,3.161889 1.49792,3.861567 0.354774,0.414634 0.757347,0.62876 1.533163,0.815735 0.840315,0.202454 1.364762,0.501076 1.933858,1.101174 0.529599,0.558466 1.268838,1.718106 1.793321,2.813266 0.184596,0.38545 0.346968,0.70078 0.360929,0.70078 0.01389,0 0.330931,-0.65062 0.704482,-1.44585 z M 121.59618,97.736889 c 0,-0.1105 0.79669,-2.105311 1.12013,-2.804567 0.17564,-0.379617 0.54456,-1.046546 0.81989,-1.482062 0.90424,-1.430197 1.12189,-2.119252 0.98503,-3.118785 -0.0413,-0.291813 -0.15206,-0.917234 -0.24914,-1.389901 -0.29348,-1.427881 -0.38267,-2.615795 -0.34296,-4.563423 0.0413,-2.00409 0.0929,-2.522027 0.37674,-3.751209 0.2477,-1.073777 0.31662,-1.890796 0.2168,-2.584611 -0.11185,-0.777501 -0.21721,-1.029609 -0.70853,-1.689548 -0.84563,-1.136432 -2.39191,-4.045798 -5.06524,-9.530282 -1.68751,-3.462029 -2.85705,-5.479186 -5.41955,-9.347192 -0.68668,-1.036476 -1.54336,-2.329819 -1.90373,-2.874103 -1.82853,-2.761547 -3.38488,-5.469381 -6.04198,-10.512334 -0.88466,-1.678968 -2.10259,-3.881375 -2.91078,-5.263601 -1.3216,-2.260317 -2.13524,-3.491947 -4.915345,-7.440518 -0.817852,-1.161563 -1.928593,-2.769884 -2.468351,-3.574049 -0.539745,-0.804155 -1.285359,-1.886121 -1.656966,-2.404356 -0.3716,-0.51824 -1.130431,-1.5817 -1.686307,-2.363244 -2.661779,-3.74225 -4.002977,-5.318977 -6.41068,-7.536601 -0.585607,-0.539357 -1.334173,-1.237372 -1.66349,-1.55114 -0.899567,-0.857011 -1.055828,-0.950734 -0.55719,-0.334153 0.234373,0.289635 0.778565,0.961651 1.209612,1.493369 3.500467,4.317769 7.359974,10.431881 11.11147,17.602322 0.392873,0.750549 0.858841,1.627818 1.035869,1.949482 0.408072,0.741248 2.470421,5.111228 3.220195,6.823186 1.082003,2.470468 2.355663,5.484951 3.761563,8.902631 0.36748,0.893506 1.80479,4.374756 3.19382,7.73609 2.48054,6.002692 2.90923,7.030148 4.86514,11.66124 3.05386,7.230462 3.81477,9.150989 5.29101,13.353946 1.0692,3.04421 1.70416,4.994392 3.28468,10.088553 1.22986,3.963922 1.50833,4.79561 1.50833,4.50486 z M 14.284093,87.757247 c 3.832749,-6.456132 7.98628,-14.113316 12.231372,-22.549 0.251805,-0.500362 0.731362,-1.450734 1.065704,-2.111938 0.861719,-1.704164 4.240322,-8.523681 5.521348,-11.144529 0.593957,-1.215176 1.155764,-2.355621 1.248457,-2.534321 0.09267,-0.17872 0.982985,-1.991724 1.97844,-4.028932 7.122408,-14.576146 9.80809,-19.811882 12.324842,-24.027355 0.29342,-0.491426 0.520974,-0.893509 0.50565,-0.893509 -0.06343,0 -1.041605,1.03875 -2.341488,2.486886 -1.271024,1.415977 -2.242304,2.62441 -3.198066,3.97889 -1.168872,1.656534 -3.686743,5.481996 -5.132463,7.797923 -4.016763,6.434469 -6.71644,10.513003 -12.258878,18.520071 -0.841143,1.215176 -1.950339,2.823502 -2.464891,3.574053 -0.51455,0.750544 -1.569167,2.285761 -2.343597,3.41159 -0.774425,1.125823 -1.937551,2.836491 -2.584724,3.801486 -2.350502,3.504815 -5.0301,7.280628 -8.001228,11.274503 -1.3861936,1.863365 -1.8454535,2.547907 -2.1738331,3.240166 l -0.3194274,0.673363 0.00694,0.918719 c 0.00832,1.109553 0.14397,1.686902 0.6598521,2.808354 0.411813,0.895219 0.645352,1.158888 1.3465374,1.520173 0.675479,0.348036 1.279719,0.968263 1.616117,1.658836 0.283137,0.581292 1.12622,2.846205 1.180989,3.172764 0.02314,0.136698 0.06136,0.224437 0.08551,0.194931 0.02402,-0.02983 0.495191,-0.813887 1.046855,-1.743144 z M 10.515546,73.834706 c 2.225622,-2.962938 4.425704,-6.101566 9.39484,-13.402679 1.20409,-1.769161 2.965263,-4.342475 3.913722,-5.718479 3.955786,-5.738984 4.632336,-6.726864 6.279684,-9.169426 2.598886,-3.85342 3.604639,-5.40004 6.629982,-10.195423 2.564877,-4.065517 3.458095,-5.456852 4.086415,-6.365268 0.244825,-0.353979 0.243621,-0.353248 -0.480649,0.296452 -1.655274,1.484825 -5.022142,4.174887 -7.814054,6.243259 -2.252221,1.668547 -5.39932,3.66905 -6.935838,4.408877 -0.351362,0.169184 -1.022124,0.49608 -1.490595,0.726449 -0.46847,0.230338 -1.139239,0.506582 -1.490594,0.613801 -0.351359,0.107212 -0.738785,0.264253 -0.860957,0.349008 -0.122159,0.08471 -0.453321,0.440691 -0.735868,0.790969 -0.697026,0.864138 -0.912339,1.059147 -1.569944,1.421907 -0.698445,0.385296 -1.061587,0.759822 -1.790656,1.846803 -0.690181,1.029006 -1.349353,1.763053 -2.052674,2.285846 -1.18268,0.879104 -1.576072,1.228749 -2.652638,2.357619 -1.190339,1.248157 -1.537378,1.724345 -1.863974,2.557602 -0.385836,0.984468 -0.420551,1.235849 -0.427481,3.098695 -0.006,1.583989 -0.0162,1.734208 -0.165512,2.404361 -0.08754,0.393105 -0.189825,1.021853 -0.227217,1.397131 -0.213813,2.145588 -0.3292669,2.445747 -1.4193986,3.691258 -0.6306728,0.720553 -0.9191377,1.251698 -1.118616,2.059704 -0.1719359,0.696422 -0.1576996,2.519997 0.025895,3.299489 0.1642611,0.698115 0.2258285,0.827751 0.7450564,1.570293 0.2264289,0.323848 0.4815056,0.737853 0.5668042,0.920075 0.2918307,0.623378 0.5875832,2.180916 0.5880336,3.096536 1.207e-4,0.276963 0.011071,0.503605 0.024519,0.503605 0.013448,0 0.3922164,-0.489793 0.8418774,-1.088464 z M 122.91007,69.399635 c 0.1428,-0.625065 0.17145,-0.890764 0.17383,-1.624571 0.002,-0.850694 -0.002,-0.890232 -0.18715,-1.305521 -0.10446,-0.235591 -0.32676,-0.630317 -0.49439,-0.877269 -0.46493,-0.685904 -0.59735,-1.020413 -1.03504,-2.614765 l -0.40444,-1.473269 -0.009,-1.657065 c -0.009,-1.836538 -0.0698,-2.300236 -0.45298,-3.362145 -0.41689,-1.155231 -2.17591,-3.545345 -4.7226,-6.417748 -1.94417,-2.192848 -14.99219,-16.281768 -14.99219,-16.18821 0,0.02237 0.17288,0.296696 0.38455,0.609131 1.57613,2.32753 3.22977,5.21061 5.97261,10.412957 2.67994,5.083156 4.04443,7.380434 6.75432,11.371968 0.64249,0.946351 2.46225,3.761164 2.91797,4.513498 0.87678,1.447478 1.94172,3.456186 3.25722,6.143664 0.44604,0.911385 1.09069,2.198042 1.43239,2.85924 0.34158,0.661197 0.69731,1.363008 0.79021,1.559587 l 0.16914,0.357374 0.13585,-0.77979 c 0.0749,-0.428901 0.21305,-1.116083 0.30687,-1.527099 z m -6.67469,-21.525519 c -0.23663,-1.246997 -0.35403,-1.665133 -0.65797,-2.345739 -0.35265,-0.788717 -0.64726,-1.179372 -1.36265,-1.805386 -0.37394,-0.327288 -1.07737,-1.02323 -1.56309,-1.546548 -0.48574,-0.523322 -1.15821,-1.173986 -1.49442,-1.445923 -1.00092,-0.809618 -1.33292,-1.26744 -2.01779,-2.782513 -0.66053,-1.461258 -1.32313,-2.30409 -2.78385,-3.541153 -0.33462,-0.283397 -0.92323,-0.804467 -1.30806,-1.157959 -1.40812,-1.293476 -2.68308,-2.200965 -4.22842,-3.009719 -0.6523,-0.341362 -2.288883,-0.998851 -2.486377,-0.998851 -0.124348,0 4.689327,5.280667 11.825417,12.972669 2.49294,2.687167 4.9159,5.324434 5.38439,5.860592 0.46849,0.536159 0.86666,0.977459 0.88477,0.980656 0.0181,0.0032 -0.0684,-0.527858 -0.19184,-1.180126 z M 28.255487,37.025335 c 2.973859,-1.885099 8.318923,-5.976017 11.555673,-8.844291 0.443382,-0.392897 0.806136,-0.723768 0.806136,-0.735259 0,-0.01174 -0.03421,-0.0088 -0.07612,0.0068 -0.0416,0.01511 -0.459332,0.144914 -0.927818,0.288221 -2.301927,0.704299 -5.639473,2.109297 -7.047308,2.966683 -1.062907,0.647322 -1.427417,1.018076 -2.460199,2.502356 -0.543018,0.780399 -0.716614,0.946955 -1.712878,1.643346 -0.889742,0.621935 -1.415955,1.11308 -1.595666,1.489324 -0.06498,0.136043 -0.202116,0.501776 -0.304772,0.812725 -0.102656,0.310982 -0.254294,0.708177 -0.336985,0.882711 l -0.150356,0.31737 0.708863,-0.401069 c 0.389858,-0.220611 1.083484,-0.638565 1.541362,-0.928807 z"
       id="path1240" />
    <path
       style="fill:none;stroke:#fe0000;stroke-width:0.264583px;stroke-linecap:butt;stroke-linejoin:miter;stroke-opacity:1"
       d="m 63.594241,8.8131196 c 0.89957,-0.2269479 0.990806,-0.2195385 0.990806,-0.2195385 0,0 -0.649604,1.9561309 -1.11049,3.6854239 -0.460886,1.729292 -1.718994,7.413292 -1.835289,7.678612 -0.06839,0.156037 -2.372251,13.620509 -2.445278,14.080989 -0.07949,0.501208 -0.273429,1.684454 -0.273429,1.684454 l -0.346275,1.893593 -0.582893,3.480007 -0.644697,4.500515 -0.726019,4.815284 -0.681139,5.22764 -1.256392,8.543629 -1.464538,9.734658 -3.582278,22.403564 c -1.556395,8.27587 -3.187406,16.57982 -5.093294,24.98717 -0.280425,0.81068 -0.231192,2.55898 -1.283589,2.90957 -2.17937,0.0904 -2.506863,-0.72611 -3.734386,-1.63195 -1.069504,-1.96433 -0.773546,-1.67323 -1.160318,-2.50985 -1.284676,-1.3263 -1.947462,-1.55847 -3.088109,-2.1369 l -1.530185,-0.0501 -1.34568,0.5499 c -1.405089,-0.42391 -1.673177,-0.85038 -2.230962,-1.27619 -0.756028,-0.4716 -0.992593,-0.88577 -1.399963,-1.31882 l 5.97844,-14.67347 c 4.105938,-12.855492 8.54715,-25.538275 11.967999,-38.746676 l 8.329385,-31.346563 3.021671,-9.77752 3.571563,-9.240535 c 0.578955,-1.255204 1.164884,-2.4938503 1.955339,-3.2468864 z"
       id="path14353"
       sodipodi:nodetypes="ccsssccccccccccccccccccccccccc" />
    <path
       style="fill:none;stroke:#ff0000;stroke-width:0.264583px;stroke-linecap:butt;stroke-linejoin:miter;stroke-opacity:1"
       d="m 65.901167,8.1912446 1.0521,-0.2551928 -0.05587,16.8082272 0.09442,12.302719 -0.321381,19.254488 -0.478248,17.229767 -1.12222,23.623778 -2.62958,30.294369 -2.062564,-0.98374 c -1.013987,-0.25071 -2.019771,-0.58919 -3.1152,0.0315 l -1.403524,1.0152 c -0.862334,0.18525 0.472751,0.76454 -3.183942,0.44869 -0.707378,-0.15346 -1.348808,-0.46959 -1.891382,-1.02954 l -0.617773,-1.60043 c -0.969306,-0.859 -2.042598,-1.63699 -3.579317,-2.05397 l -1.330067,0.0963 3.64068,-16.89868 L 53.392651,80.398851 57.58683,52.63547 59.935349,36.648765 61.651537,26.45773 c 0.70169,-3.623645 1.226894,-7.120617 2.275651,-11.264975 0.683806,-2.511864 1.322126,-4.710019 1.973979,-7.0015104 z"
       id="path18036"
       sodipodi:nodetypes="ccccccccccccccccccccccc" />
    <path
       style="fill:none;stroke:#ff0000;stroke-width:0.264583px;stroke-linecap:butt;stroke-linejoin:miter;stroke-opacity:1"
       d="m 68.002353,7.8695708 v 0 0 c 0.724179,-0.1340895 1.16076,0.175332 1.413199,0.4753958 0.727556,2.1690744 1.365384,4.0424714 2.133953,7.1737104 2.039251,7.506811 3.706513,15.279164 5.410171,23.025537 l 4.050006,23.470303 3.598471,28.740372 1.706729,19.443651 0.502481,15.37178 c -0.62533,-0.31879 -1.248688,-0.67811 -1.889207,-0.68487 -1.699007,-0.28319 -2.294062,0.12983 -2.981608,0.49631 -1.22034,0.85003 -1.422293,1.57673 -1.824784,2.28108 -1.261949,0.99126 -2.770041,1.51458 -5.193561,0.2976 -1.747336,-1.56958 -3.406921,-1.36891 -3.831306,-1.4028 -2.353025,0.10853 -2.517748,1.96928 -4.470659,2.52254 -1.137123,0.26698 -2.367338,0.0452 -2.964315,-0.3989 l 2.928023,-39.356041 1.388473,-38.804698 0.08546,-31.261494 z"
       id="path19955"
       sodipodi:nodetypes="ccccccccccccccccccccc" />
    <path
       style="fill:none;stroke:#ff0000;stroke-width:0.264583px;stroke-linecap:butt;stroke-linejoin:miter;stroke-opacity:1"
       d="m 70.493635,7.9256275 0.698968,-0.00967 c 0.202973,0.048287 0.371142,-0.019682 0.647063,0.2722713 l 2.199335,3.0910192 2.534158,4.910419 2.417945,5.781294 c 0.591316,1.42251 1.174406,2.957069 1.77641,4.233979 -0.07305,-0.76491 -0.248646,-1.711833 -0.795398,-3.317524 L 77.89456,17.417428 76.585878,14.430384 75.655174,12.531261 74.298923,10.100313 73.058815,8.2027716 74.298232,8.6506064 c 0.767149,0.7642001 1.341315,0.8875482 2.310522,2.3227386 l 3.600058,5.13318 3.661974,6.869927 3.988596,9.375259 2.691373,7.37082 2.52915,8.296532 2.051238,7.908565 2.229008,8.599347 4.690809,17.662432 3.7924,16.075863 3.16931,17.16504 c -1.03918,0.20411 -1.53981,0.0125 -3.37148,0.79893 -1.40383,0.84252 -1.4811,1.57754 -1.71463,2.32522 -0.0288,0.94908 -0.16815,1.83263 -0.96519,2.32636 -1.16645,0.82632 -1.79016,1.00797 -2.56895,1.37383 -1.556935,-0.38963 -2.585043,-0.61291 -3.236659,-0.71777 -0.907241,-0.26954 -1.863228,-0.14846 -3.41081,0.81226 -0.70896,0.68741 -1.162307,1.42604 -1.301224,2.22769 -0.43353,0.77745 -1.28498,1.23112 -2.343062,1.52469 -0.850386,0.20798 -1.622334,0.31609 -2.057974,-0.004 l -0.730565,-17.50675 c -0.47063,-6.37275 -1.0527,-12.194891 -1.560603,-18.339856 L 82.884837,66.683725 79.705548,47.03396 76.414277,30.697953 73.34828,17.199611 71.697672,10.961976 Z"
       id="path22486"
       sodipodi:nodetypes="cccccccccccccccccccccccccccccccccccccccccc" />
    <path
       style="fill:none;stroke:#ff0000;stroke-width:0.264583px;stroke-linecap:butt;stroke-linejoin:miter;stroke-opacity:1"
       d="m 76.908693,9.3624938 c 1.31143,0.9907992 2.538039,2.0899662 3.71844,3.2481692 2.002892,2.423948 4.057564,4.76796 5.830802,7.546432 3.243249,4.710204 6.060944,9.629113 8.718972,14.626328 2.855385,5.624915 5.302983,11.570618 7.771193,17.500113 l 9.68702,23.135648 c 2.18383,5.687127 4.17611,11.338627 6.04308,16.966816 l 2.41203,8.32049 c 0.0186,1.28967 0.0749,2.58475 -1.31396,3.67219 -1.01757,0.63124 -1.91177,1.12525 -3.13812,1.98873 -0.685,0.81777 -1.36591,1.65018 -1.97133,2.75255 l -0.6955,2.5615 c -0.21622,0.97603 -0.80063,1.83131 -1.31919,2.3479 -0.88165,1.09893 -1.72719,1.5835 -2.53699,1.45989 l -2.72841,-14.49706 C 106.54925,94.848003 104.92358,89.530922 103.58676,83.910727 101.92377,75.968745 99.700184,69.034965 97.745532,61.617523 96.128497,55.12491 94.697827,48.576064 92.647331,42.214243 91.071001,37.361877 89.346381,32.632933 87.453468,28.04406 85.803279,24.200329 84.223008,20.304562 82.108035,16.806735 80.205281,13.775262 78.640071,11.83828 76.908693,9.3624938 Z"
       id="path24994"
       sodipodi:nodetypes="ccccccccccccccccccccc" />
    <path
       style="fill:none;stroke:#ff0000;stroke-width:0.264583px;stroke-linecap:butt;stroke-linejoin:miter;stroke-opacity:1"
       d="m 82.887922,13.310953 c 1.608818,1.51964 3.139367,2.851951 4.858668,4.636022 3.379903,4.050745 6.533593,8.862441 9.766951,13.406147 2.908829,4.048817 5.444179,8.336504 7.864739,12.697613 2.60362,5.068958 5.56668,10.182781 9.18721,15.378668 0.80707,1.386673 1.3696,2.164015 2.42807,4.177152 0.73131,1.230502 1.38036,2.415242 1.90835,3.532634 l 3.53893,7.009951 1.11058,1.961589 0.78929,1.044387 c 0.38346,1.124289 0.44243,2.263338 0.0206,3.424258 l -0.36847,2.210512 c -0.0433,0.973848 -0.2963,0.956786 -0.0101,3.486698 0.15979,1.284059 0.16769,1.297649 0.56389,4.559104 -0.0742,0.473406 -0.10929,0.879999 -0.33706,1.616316 -0.37961,0.542714 -0.8016,0.935288 -1.08949,1.802929 -1.09045,1.843975 -1.14935,2.477773 -1.52397,3.481956 -1.12422,-3.76238 -2.20172,-6.97052 -3.27771,-10.160667 -0.79428,-2.874046 -1.68573,-4.988038 -2.53372,-7.441921 -1.98358,-5.135674 -3.91451,-9.63384 -5.85201,-14.211515 l -5.27373,-12.755833 c -1.21026,-3.393525 -2.77568,-6.577332 -4.15783,-9.941389 -1.29039,-3.211368 -2.684429,-5.793566 -4.032643,-8.653931 -1.417767,-3.110368 -3.107938,-5.808651 -4.724918,-8.617655 -0.966103,-1.68828 -2.293546,-3.812682 -4.822658,-7.387443 -1.210837,-1.883774 -2.627129,-3.564514 -4.032969,-5.255582 z"
       id="path26932"
       sodipodi:nodetypes="cccccccccccccccccccccccccc" />
    <path
       style="fill:none;stroke:#ff0000;stroke-width:0.264583px;stroke-linecap:butt;stroke-linejoin:miter;stroke-opacity:1"
       d="m 100.83479,33.881798 4.17873,6.894903 c 1.53501,2.737403 2.98581,5.420876 3.88441,7.361962 l 3.52086,5.848628 3.42125,5.177615 2.97459,5.142212 c 1.63937,3.118825 2.58089,5.119946 3.75892,7.499865 0.11102,-0.884105 0.1399,-1.590892 0.65689,-3.35136 -0.001,-1.077756 -0.0688,-1.248216 -0.11917,-1.653889 -0.70816,-1.143207 -0.84357,-1.495222 -1.04242,-1.934875 -1.19124,-3.225767 -0.73349,-2.346185 -0.99694,-3.262127 0.0359,-5.774388 -1.74452,-6.516449 -2.097,-7.717907 -2.41685,-3.024875 -2.70273,-3.227927 -3.76096,-4.44965 l -8.32509,-8.984541 z"
       id="path28921"
       sodipodi:nodetypes="ccccccccccccccc" />
    <path
       style="fill:none;stroke:#ff0000;stroke-width:0.264583px;stroke-linecap:butt;stroke-linejoin:miter;stroke-opacity:1"
       d="m 98.315456,29.270372 c 1.373177,0.420511 2.729474,0.995282 4.043274,1.958398 1.87409,1.141457 3.84411,3.053099 5.82165,5.02507 0.38814,0.681244 0.73225,1.217254 1.22809,2.253676 0.32747,0.534438 0.54969,1.143817 1.00177,1.589519 l 1.76735,1.583063 1.81222,1.845625 1.32498,1.353772 c 0.53305,1.080431 0.89443,2.563418 1.18301,4.217104 l -4.87042,-5.28225 -5.66895,-6.189184 z"
       id="path30816"
       sodipodi:nodetypes="cccccccccccc" />
  </g>
  <g
     inkscape:groupmode="layer"
     id="layer2"
     inkscape:label="Ebene 2">
    <path
       style="fill:none;stroke:#ff0000;stroke-width:0.264583px;stroke-linecap:butt;stroke-linejoin:miter;stroke-opacity:1"
       d="m 32.874553,30.465106 c -2.165333,1.480689 -2.383898,2.34974 -3.155611,3.39258 -0.468562,0.633896 -1.642637,0.918168 -2.725755,2.28922 l -0.987993,2.208414 6.991845,-4.642787 c 2.2534,-1.868664 3.615115,-2.978361 5.704805,-4.61167 L 40.550917,27.5288 c -2.617426,0.689289 -5.20348,1.820505 -7.676364,2.936306"
       id="path4579"
       sodipodi:nodetypes="cccccccc" />
    <path
       style="fill:none;stroke:#ff0000;stroke-width:0.264583px;stroke-linecap:butt;stroke-linejoin:miter;stroke-opacity:1"
       d="m 40.972993,28.769135 -6.830292,5.556041 -3.852699,2.796606 -5.219281,3.082687 -3.220143,1.372809 -1.623018,1.774235 -1.733747,1.199243 -1.533896,2.143799 -2.496299,2.164805 -1.630836,1.622354 c -1.34123,1.165369 -1.422183,2.100196 -1.933363,3.113725 L 10.26533,60.429092 9.4143633,62.814428 C 7.8298515,64.234966 8.2270626,64.716362 7.5820317,65.9894 l 0.3096953,3.344595 1.6671456,3.11974 0.1118989,2.658059 L 18.8649,61.999272 30.223435,45.359347 c 4.131789,-6.730896 6.402886,-9.491168 6.402886,-9.491168 l 3.280042,-5.366286 1.06663,-1.732758"
       id="path6191"
       sodipodi:nodetypes="cccccccccccccccccccccc" />
    <path
       style="fill:none;stroke:#fc0000;stroke-width:0.264583px;stroke-linecap:butt;stroke-linejoin:miter;stroke-opacity:1"
       d="m 49.153915,20.490099 c -1.893313,2.170923 -3.86642,3.924382 -5.641133,6.715793 L 38.540271,34.638493 25.301824,54.79992 13.19783,72.153011 c -1.661309,2.330007 -3.5283474,4.525088 -4.8565195,7.073583 -0.051514,1.369554 0.063945,2.673356 0.5940411,3.630184 5.135e-4,-0.0016 0.3667963,0.82117 0.9227087,1.351381 0.5132587,0.489529 1.6011857,1.048096 1.7511787,1.314293 0.149994,0.266198 1.612518,4.04267 1.612518,4.04267 l 3.462128,-5.864535 5.978611,-10.983976 5.614654,-11.0144 4.065683,-8.162306 3.355673,-6.82231 3.957352,-8.069606 4.136141,-8.278284 3.327833,-6.063114 1.301968,-2.484197 z"
       id="path8939"
       sodipodi:nodetypes="cccccccssccccccccccc" />
    <path
       style="fill:none;stroke:#ff0000;stroke-width:0.264583px;stroke-linecap:butt;stroke-linejoin:miter;stroke-opacity:1"
       d="M 12.6999,92.832302 C 18.392932,83.62657 23.870029,72.95997 23.870029,72.95997 L 34.256495,52.387857 45.62844,29.350173 l 4.757711,-8.528814 2.643209,-4.056834 2.585138,-3.124559 1.432025,-1.120576 -3.061353,5.843124 -5.658297,12.858417 -7.662818,19.99429 -6.75055,17.667504 -7.396816,18.707536 -5.141116,12.068955 -1.487652,3.189634 -2.228124,-3.585342 C 17.142178,98.85562 17.093456,98.380892 15.393354,98.141564 14.119137,98.296993 13.749215,97.134075 13.352826,96.009742 12.565427,95.254233 12.695598,94.009729 12.6999,92.832302 Z"
       id="path10417"
       sodipodi:nodetypes="ccccccccccccccccccc" />
    <path
       style="fill:none;stroke:#ff0000;stroke-width:0.264583px;stroke-linecap:butt;stroke-linejoin:miter;stroke-opacity:1"
       d="m 61.648231,9.5717763 c -1.32723,0.037192 -2.406977,1.8195427 -2.406977,1.8195427 -0.01192,-0.02697 -2.300509,3.529591 -2.703433,4.267462 -1.682541,3.08122 -6.087558,13.650306 -6.087558,13.650306 -2.048948,4.852004 -3.640764,8.921601 -4.593809,11.185168 -1.274171,3.026267 -4.459757,11.893019 -4.459757,11.893019 l -5.002736,13.188635 -9.498867,23.994655 -4.963172,11.324766 -2.257576,4.86212 0.109823,1.211 1.368327,2.37285 1.154238,0.81245 1.969633,-0.20205 1.420526,0.57933 2.345471,1.97809 0.589317,1.08621 c 3.255212,-7.83702 6.275764,-15.989941 9.042056,-24.485154 3.704082,-11.464487 7.042816,-22.944539 9.999631,-34.44086 L 53.04462,34.410323 c 1.523802,-5.163664 2.829523,-10.45619 4.881958,-15.824405 0.856324,-2.233288 1.463218,-4.478524 2.569927,-6.699819 0.943676,-1.9294393 0.767817,-1.542882 1.151726,-2.3143227 z"
       id="path10912"
       sodipodi:nodetypes="ccssscccccccccccccccccc" />
  </g>
</svg>
