<?xml version="1.0" encoding="UTF-8" standalone="no"?>
<!-- Created with Inkscape (http://www.inkscape.org/) -->

<svg
   width="210mm"
   height="297mm"
   viewBox="0 0 210 297"
   version="1.1"
   id="svg33865"
   inkscape:version="1.1.2 (0a00cf5339, 2022-02-04)"
   sodipodi:docname="knutt.svg"
   xmlns:inkscape="http://www.inkscape.org/namespaces/inkscape"
   xmlns:sodipodi="http://sodipodi.sourceforge.net/DTD/sodipodi-0.dtd"
   xmlns="http://www.w3.org/2000/svg"
   xmlns:svg="http://www.w3.org/2000/svg">
  <sodipodi:namedview
     id="namedview33867"
     pagecolor="#ffffff"
     bordercolor="#666666"
     borderopacity="1.0"
     inkscape:pageshadow="2"
     inkscape:pageopacity="0.0"
     inkscape:pagecheckerboard="0"
     inkscape:document-units="mm"
     showgrid="false"
     inkscape:zoom="0.73940797"
     inkscape:cx="-81.146001"
     inkscape:cy="198.8077"
     inkscape:window-width="1920"
     inkscape:window-height="1012"
     inkscape:window-x="1920"
     inkscape:window-y="1080"
     inkscape:window-maximized="1"
     inkscape:current-layer="layer3" />
  <defs
     id="defs33862" />
  <g
     inkscape:groupmode="layer"
     id="layer3"
     inkscape:label="Ebene 2">
    <path
       style="fill:none;stroke:#ff0000;stroke-width:0.0521347px;stroke-linecap:butt;stroke-linejoin:miter;stroke-opacity:1"
       d="m 13.218136,28.724393 c -2.034861,-0.369371 -3.069801,-0.601297 -3.2978785,-0.640945 -0.168174,-0.02284 -0.17568,-0.157794 -0.13713,-0.204573 0.184632,0.03665 0.3873495,0.05948 0.6631905,0.157263 l 2.406641,0.412329 c -0.764803,-0.158186 -1.251735,-0.293674 -2.294409,-0.474556 -0.223998,-0.04365 -0.37953,-0.119042 -0.554304,-0.18551 -0.1421575,-0.122319 -0.3255765,-0.215984 -0.1799095,-0.230625 0.1822795,-0.01777 0.3138305,-0.01244 0.4705515,-0.01064 0.174034,-0.02782 0.966272,0.197461 1.444885,0.29287 -0.409133,-0.125121 -0.714276,-0.258609 -1.227401,-0.375364 -0.240596,-0.08094 -0.454266,-0.132557 -0.6581285,-0.173499 -0.11551,-0.0058 -0.12325,-0.10891 -0.112372,-0.228823 0.5251865,-0.100469 0.5615475,-0.04506 0.9797975,-0.08081 0.222888,-0.08261 0.796182,-0.18759 1.510533,-0.336791 0.194978,-0.05716 0.471231,-0.08966 0.770386,-0.115211 -0.02447,-0.06956 -0.03543,-0.134205 -0.01192,-0.186308 0.20669,-0.162919 0.392927,-0.159088 0.595983,-0.235281 1.025432,-0.308248 1.252081,-0.313087 2.279753,-0.555781 0.07145,-0.124925 0.183033,-0.178434 0.354331,-0.305202 0.563967,-0.134378 1.19376,-0.264127 1.65189,-0.336181 l 1.153713,-0.369591 c 0.471177,-0.207318 0.94939,-0.394929 1.367733,-0.750241 l 0.630647,-0.300539 c 0.828441,-0.433065 0.727118,-0.457725 1.076756,-0.680472 l 1.732491,-1.049974 c 0.479463,-0.222638 0.847983,-0.466872 1.556253,-0.64497 l 1.789019,-0.481365 1.46528,-0.36526 1.181675,-0.29327 c 0.496877,-0.09849 0.735943,-0.09588 0.996905,-0.10185 0.218726,-0.279822 0.438547,-0.555658 0.670858,-0.786013 l 0.993958,-1.636443 c 0.20551,-0.278321 0.412168,-0.501479 0.619087,-0.712104 0.293448,-0.221488 0.279989,-0.341695 0.911758,-0.778041 0.241315,-0.23409 0.382963,-0.392871 0.78401,-0.484394 0.287447,-0.05292 0.529379,-0.132204 1.104899,-0.01832 0.400154,0.130983 0.797346,0.208319 1.205693,0.487715 0.329187,0.21818 0.446404,0.179356 0.97312,0.755433 0.175394,0.170251 0.393043,0.400232 0.616189,0.759833 0.08623,0.308517 0.166039,0.475356 0.05514,1.042797 -0.02417,0.11108 0.06143,0.409029 0.0064,0.586712 0.249956,0.332842 0.529193,0.658379 0.92515,0.954802 0.859165,0.727875 1.522483,0.993576 2.577494,2.183625 0.119118,0.187546 0.238238,0.202669 0.357356,0.572428 -0.01793,0.0678 0.03466,0.162383 -0.09943,0.186077 -0.202821,-0.06419 -0.283701,-0.114162 -0.398995,-0.168146 l -0.721749,-0.52704 c -0.600074,-0.350506 -0.951195,-0.568034 -1.415719,-0.868282 -0.477272,-0.25968 -0.938508,-0.536468 -1.445969,-0.689461 -0.242716,0.155608 -0.512329,0.04525 -0.670353,0.8795 l -0.06098,1.896136 c -0.07431,0.551173 -0.170046,1.087992 -0.314179,1.592398 -0.184312,0.667632 -0.312174,1.345055 -0.64041,1.921801 -0.171165,0.484619 -0.428205,0.853309 -0.655944,1.261555 -0.251873,0.505673 -0.601567,0.979592 -0.968156,1.448028 -0.206891,0.224019 -0.395615,0.532225 -0.643599,0.757733 l -1.748573,1.562531 c -0.722629,0.573294 -1.41396,1.153883 -2.601577,1.618794 -0.48302,0.248837 -0.804425,0.505169 -2.479366,0.698725 -0.515784,-0.05213 -0.421513,0.02048 -0.60618,0.03606 -0.20841,0.254105 -0.411268,0.631335 -0.428203,1.008935 0.03983,0.303602 0.117176,0.176963 0.104399,0.946689 -0.05891,0.07686 -0.166203,0.184191 -0.154727,0.640418 -0.0042,0.682006 0.08266,1.382037 0.217161,2.022365 0.136899,0.702435 0.238681,1.293529 0.365696,1.837941 0.08589,0.111297 0.278841,0.135153 0.487598,0.146095 0.328571,-0.03218 0.658912,-0.04928 1.013414,0.139499 0.07108,0.06712 0.133589,0.147124 0.132227,0.323127 -0.03569,0.281615 1.754923,0.223929 2.282168,0.410873 0.03717,0.115478 0.378376,0.08405 0.291656,0.449948 -0.369545,-0.01556 -0.490052,0.02648 -1.067914,0.007 -0.0096,0.06526 0.01156,0.120982 -0.04911,0.202051 -0.996053,0.006 -1.863521,-0.224665 -2.783998,-0.212889 -0.354174,-0.129476 -0.710469,-0.278447 -1.06814,-0.440076 -0.294047,-0.122925 -0.119362,-0.46449 -0.166529,-0.7608 -0.158999,0.09811 -0.324632,0.198486 -0.39596,0.680046 l -0.08108,-0.277847 0.03033,-0.414191 c 0.164378,-0.167765 0.191046,-0.390686 0.260485,-0.597129 0.178955,-0.549526 0.06885,-0.775167 0.03283,-1.083813 -0.185056,-0.867033 -0.266932,-2.12894 -0.39249,-2.494949 -0.209566,-0.703509 -0.152824,-0.653302 -0.223356,-1.017898 0.0521,-0.333914 0.08137,-0.566528 0.378119,-0.85848 0.09518,-0.114171 0.198943,-0.432935 0.248405,-0.669317 -0.180726,-0.04301 -0.354644,-0.119221 -0.548207,-0.09962 -0.125294,0.127949 -0.310161,0.239957 -0.235033,0.421547 -0.02427,0.175163 0.05861,0.270435 -0.09519,0.542172 -0.123579,0.214569 -0.191645,0.383392 -0.196375,0.609623 -0.130587,0.146287 -0.117415,1.465191 -0.0054,2.303435 0.05539,0.665682 -7.64e-4,1.315089 0.143819,2.023471 0.04778,0.147939 0.05665,0.269175 0.257034,0.434337 l 0.224991,0.09328 c -0.220147,0.677913 -0.15323,0.661204 -0.250903,0.861284 -0.120907,0.04581 -0.310119,0.02701 -0.555759,-0.04515 -0.169563,-0.09302 -0.344277,-0.17597 -0.459306,-0.375612 -0.06542,-0.488054 -0.0354,-0.708869 -0.04525,-1.041327 -0.136454,0.131466 -0.227716,0.377143 -0.321417,0.616654 -0.213769,-0.08183 -0.227003,0.07717 -0.168846,0.269897 -0.166494,-0.09783 -0.223433,-0.218523 -0.20686,-0.354553 0.05652,-0.414683 0.341978,-0.784552 0.641668,-1.356102 -0.03885,-1.296116 -0.02822,-2.396069 -0.209953,-3.577607 -0.04066,-0.348823 -0.03066,-0.711366 0.0019,-1.080024 0.127876,-0.185637 0.143011,-0.430646 0.470604,-0.572688 -0.780223,-0.215017 -1.284735,-0.473814 -2.068964,-0.721143 -0.290452,-0.158963 -0.808539,-0.427034 -1.218566,-0.6769 -0.971101,-0.256782 -1.62852,-0.612202 -2.278323,-0.970016 -1.033801,-0.719677 -1.448077,-0.995749 -1.985758,-1.403239 -0.295539,-0.225175 -0.612698,-0.44564 -0.954039,-0.660834 -0.670223,-0.33119 -1.34403,-0.643675 -2.050567,-0.785379 -0.518461,-0.08134 -0.75959,-0.127162 -0.853203,-0.126348 z"
       id="path33948"
       sodipodi:nodetypes="cccccccccccccccccccccccccccccccccccccccccccccccccccccccccccccccccccccccccccccccccccccccccccccccccccccccccccccccc" />
  </g>
</svg>
