<?xml version="1.0" encoding="UTF-8" standalone="no"?>
<!-- Created with Inkscape (http://www.inkscape.org/) -->

<svg
   width="210mm"
   height="297mm"
   viewBox="0 0 210 297"
   version="1.1"
   id="svg33865"
   inkscape:version="1.1.2 (0a00cf5339, 2022-02-04)"
   sodipodi:docname="knutt.svg"
   xmlns:inkscape="http://www.inkscape.org/namespaces/inkscape"
   xmlns:sodipodi="http://sodipodi.sourceforge.net/DTD/sodipodi-0.dtd"
   xmlns="http://www.w3.org/2000/svg"
   xmlns:svg="http://www.w3.org/2000/svg">
  <sodipodi:namedview
     id="namedview33867"
     pagecolor="#ffffff"
     bordercolor="#666666"
     borderopacity="1.0"
     inkscape:pageshadow="2"
     inkscape:pageopacity="0.0"
     inkscape:pagecheckerboard="0"
     inkscape:document-units="mm"
     showgrid="false"
     inkscape:zoom="0.73940797"
     inkscape:cx="-81.822218"
     inkscape:cy="198.8077"
     inkscape:window-width="1920"
     inkscape:window-height="1012"
     inkscape:window-x="1920"
     inkscape:window-y="1080"
     inkscape:window-maximized="1"
     inkscape:current-layer="layer3" />
  <defs
     id="defs33862" />
  <g
     inkscape:groupmode="layer"
     id="layer3"
     inkscape:label="Ebene 2">
    <path
       style="fill:none;stroke:#ff0000;stroke-width:0.0421996px;stroke-linecap:butt;stroke-linejoin:miter;stroke-opacity:1"
       d="m 15.604666,29.242342 c -1.466755,-0.33574 -2.212753,-0.54655 -2.377155,-0.58259 -0.121222,-0.0208 -0.126633,-0.14342 -0.09885,-0.18594 0.133085,0.0333 0.279207,0.0541 0.478037,0.14294 l 1.734738,0.37479 c -0.55128,-0.14379 -0.902267,-0.26694 -1.65384,-0.43135 -0.16146,-0.0397 -0.27357,-0.1082 -0.39955,-0.16862 -0.102469,-0.11118 -0.23468,-0.19632 -0.129681,-0.20963 0.13139,-0.0161 0.226214,-0.0113 0.33918,-0.01 0.125446,-0.0253 0.696502,0.17948 1.041493,0.2662 -0.294909,-0.11373 -0.51486,-0.23506 -0.884728,-0.34118 -0.173424,-0.0736 -0.327441,-0.12049 -0.474388,-0.15771 -0.08326,-0.005 -0.08884,-0.099 -0.081,-0.20799 0.378562,-0.0913 0.404771,-0.041 0.706252,-0.0735 0.16066,-0.0751 0.573898,-0.17051 1.088812,-0.30613 0.140542,-0.052 0.339669,-0.0815 0.555304,-0.10472 -0.01764,-0.0632 -0.02554,-0.12199 -0.0086,-0.16934 0.148984,-0.14809 0.283227,-0.14461 0.429592,-0.21386 0.739145,-0.28018 0.902517,-0.28458 1.643276,-0.50518 0.0515,-0.11355 0.131933,-0.16219 0.255407,-0.27741 0.406515,-0.12215 0.860478,-0.24008 1.190704,-0.30558 l 0.831612,-0.33594 c 0.339631,-0.18844 0.684333,-0.35897 0.98588,-0.68193 l 0.454579,-0.27317 c 0.597151,-0.39364 0.524116,-0.41605 0.77614,-0.61852 l 1.248803,-0.95438 c 0.345603,-0.20236 0.611237,-0.42436 1.121767,-0.58624 l 1.289549,-0.43754 1.056193,-0.332 0.851767,-0.26657 c 0.358156,-0.0895 0.530478,-0.0871 0.718582,-0.0926 0.157662,-0.25434 0.316111,-0.50506 0.483564,-0.71444 l 0.716458,-1.48745 c 0.148134,-0.25298 0.297096,-0.45582 0.446247,-0.64727 0.21152,-0.20132 0.201819,-0.31058 0.657207,-0.7072 0.173943,-0.21278 0.276045,-0.3571 0.565124,-0.44029 0.207196,-0.0481 0.381584,-0.12017 0.796426,-0.0166 0.288436,0.11906 0.574738,0.18935 0.86908,0.44331 0.237282,0.19832 0.321774,0.16303 0.701438,0.68665 0.126426,0.15475 0.28331,0.36379 0.444157,0.69065 0.06216,0.28043 0.119683,0.43208 0.03974,0.94786 -0.01742,0.10096 0.04428,0.37178 0.0046,0.53329 0.180171,0.30254 0.381449,0.59843 0.66686,0.86787 0.619297,0.6616 1.097426,0.90311 1.857892,1.98481 0.08586,0.17047 0.171725,0.18421 0.257587,0.5203 -0.01293,0.0616 0.02498,0.1476 -0.07167,0.16914 -0.146196,-0.0584 -0.204496,-0.10377 -0.287601,-0.15284 l -0.520246,-0.47905 c -0.432542,-0.31859 -0.685635,-0.51632 -1.02047,-0.78923 -0.344023,-0.23603 -0.676489,-0.48762 -1.042273,-0.62668 -0.174953,0.14144 -0.369293,0.0411 -0.4832,0.79942 l -0.04396,1.72349 c -0.05356,0.50099 -0.122571,0.98894 -0.226464,1.44742 -0.132855,0.60684 -0.225019,1.22259 -0.461616,1.74682 -0.123378,0.44049 -0.308656,0.77562 -0.472813,1.14669 -0.181554,0.45963 -0.433618,0.8904 -0.69786,1.31619 -0.14913,0.20362 -0.285165,0.48376 -0.463915,0.68874 l -1.260394,1.42026 c -0.520881,0.5211 -1.019202,1.04883 -1.875252,1.47141 -0.348167,0.22618 -0.57984,0.45917 -1.78716,0.6351 -0.371784,-0.0474 -0.303832,0.0186 -0.436942,0.0328 -0.150225,0.23097 -0.296448,0.57386 -0.308655,0.91708 0.02871,0.27596 0.08446,0.16085 0.07525,0.86049 -0.04246,0.0699 -0.119801,0.16742 -0.111529,0.58211 -0.003,0.61991 0.05958,1.2562 0.156532,1.83823 0.09868,0.63848 0.172045,1.17576 0.263599,1.6706 0.06191,0.10116 0.200992,0.12285 0.351467,0.13279 0.236839,-0.0292 0.474953,-0.0448 0.730483,0.1268 0.05124,0.061 0.09629,0.13373 0.09531,0.29371 -0.02573,0.25597 1.264972,0.20354 1.645018,0.37346 0.02679,0.10496 0.272738,0.0764 0.210229,0.40898 -0.266373,-0.0141 -0.353236,0.0241 -0.769766,0.006 -0.0069,0.0593 0.0083,0.10997 -0.0354,0.18366 -0.717968,0.005 -1.343251,-0.20421 -2.006743,-0.19351 -0.255293,-0.11769 -0.512115,-0.25309 -0.769929,-0.40001 -0.211953,-0.11173 -0.08604,-0.42219 -0.120036,-0.69152 -0.114609,0.0892 -0.233999,0.18041 -0.285414,0.61812 l -0.05844,-0.25255 0.02186,-0.37648 c 0.118486,-0.15248 0.137709,-0.35511 0.187761,-0.54276 0.128993,-0.49949 0.04963,-0.70459 0.02367,-0.98513 -0.133391,-0.78809 -0.192408,-1.9351 -0.282912,-2.26779 -0.151058,-0.63945 -0.110157,-0.59382 -0.160998,-0.92522 0.03756,-0.30351 0.05865,-0.51494 0.272553,-0.78031 0.06861,-0.10378 0.143401,-0.39352 0.179054,-0.60838 -0.13027,-0.0391 -0.255632,-0.10836 -0.395155,-0.0906 -0.09031,0.1163 -0.223568,0.21811 -0.169415,0.38317 -0.0175,0.15921 0.04225,0.24581 -0.06861,0.49281 -0.08908,0.19503 -0.138139,0.34848 -0.141549,0.55411 -0.09413,0.13297 -0.08463,1.33179 -0.0039,2.09371 0.03992,0.60508 -5.5e-4,1.19536 0.103667,1.83924 0.03444,0.13447 0.04084,0.24467 0.185274,0.39479 l 0.162176,0.0848 c -0.158685,0.61619 -0.11045,0.601 -0.180854,0.78286 -0.08715,0.0416 -0.223538,0.0246 -0.400599,-0.041 -0.122223,-0.0846 -0.248159,-0.15994 -0.331074,-0.34141 -0.04716,-0.44362 -0.02551,-0.64433 -0.03261,-0.94651 -0.09836,0.11949 -0.164141,0.3428 -0.231682,0.5605 -0.154087,-0.0744 -0.163626,0.0701 -0.121706,0.24533 -0.120011,-0.0889 -0.161054,-0.19863 -0.149108,-0.32227 0.04074,-0.37693 0.246503,-0.71312 0.462523,-1.23263 -0.028,-1.17811 -0.02034,-2.17791 -0.151337,-3.25187 -0.02931,-0.31707 -0.0221,-0.6466 0.0014,-0.98169 0.09217,-0.16874 0.103084,-0.39144 0.339217,-0.52055 -0.562395,-0.19544 -0.926054,-0.43067 -1.491336,-0.65548 -0.209362,-0.14449 -0.582806,-0.38815 -0.878359,-0.61527 -0.699982,-0.2334 -1.173859,-0.55646 -1.642246,-0.8817 -0.745177,-0.65415 -1.043793,-0.90509 -1.43136,-1.27547 -0.213029,-0.20468 -0.441641,-0.40507 -0.687685,-0.60067 -0.483105,-0.30104 -0.968794,-0.58507 -1.478075,-0.71387 -0.373714,-0.0739 -0.547523,-0.11558 -0.615,-0.11484 z"
       id="path33948"
       sodipodi:nodetypes="cccccccccccccccccccccccccccccccccccccccccccccccccccccccccccccccccccccccccccccccccccccccccccccccccccccccccccccccc" />
  </g>
</svg>
