<?xml version="1.0" encoding="UTF-8"?>
<svg xmlns="http://www.w3.org/2000/svg" width="200.0mm" height="200.0mm" viewBox="0 0 200.0 200.0">
  <title>Spielfeld 200mm Glaskiesel</title>
  <rect x="0" y="0" width="200.0" height="200.0" fill="#f4e4c1" stroke="#333" stroke-width="0.25"/>
  <rect x="0" y="0" width="16.189312977099238" height="16.189312977099238" fill="none" stroke="#999" stroke-dasharray="1 1" stroke-width="0.15"/>
  <g id="mulden" fill="none" stroke="#1a8c8a" stroke-width="0.2">
    <circle cx="32.1069" cy="185.2824" r="14.5000"/>
    <circle cx="62.7420" cy="185.2824" r="14.5000"/>
    <circle cx="93.3771" cy="185.2824" r="14.5000"/>
    <circle cx="124.0122" cy="185.2824" r="14.5000"/>
    <circle cx="154.6473" cy="185.2824" r="14.5000"/>
    <circle cx="185.2824" cy="185.2824" r="14.5000"/>
    <circle cx="32.1069" cy="154.6473" r="14.5000"/>
    <circle cx="62.7420" cy="154.6473" r="14.5000"/>
    <circle cx="93.3771" cy="154.6473" r="14.5000"/>
    <circle cx="124.0122" cy="154.6473" r="14.5000"/>
    <circle cx="154.6473" cy="154.6473" r="14.5000"/>
    <circle cx="185.2824" cy="154.6473" r="14.5000"/>
    <circle cx="32.1069" cy="124.0122" r="14.5000"/>
    <circle cx="62.7420" cy="124.0122" r="14.5000"/>
    <circle cx="93.3771" cy="124.0122" r="14.5000"/>
    <circle cx="124.0122" cy="124.0122" r="14.5000"/>
    <circle cx="154.6473" cy="124.0122" r="14.5000"/>
    <circle cx="185.2824" cy="124.0122" r="14.5000"/>
    <circle cx="32.1069" cy="93.3771" r="14.5000"/>
    <circle cx="62.7420" cy="93.3771" r="14.5000"/>
    <circle cx="93.3771" cy="93.3771" r="14.5000"/>
    <circle cx="124.0122" cy="93.3771" r="14.5000"/>
    <circle cx="154.6473" cy="93.3771" r="14.5000"/>
    <circle cx="185.2824" cy="93.3771" r="14.5000"/>
    <circle cx="32.1069" cy="62.7420" r="14.5000"/>
    <circle cx="62.7420" cy="62.7420" r="14.5000"/>
    <circle cx="93.3771" cy="62.7420" r="14.5000"/>
    <circle cx="124.0122" cy="62.7420" r="14.5000"/>
    <circle cx="154.6473" cy="62.7420" r="14.5000"/>
    <circle cx="185.2824" cy="62.7420" r="14.5000"/>
    <circle cx="32.1069" cy="32.1069" r="14.5000"/>
    <circle cx="62.7420" cy="32.1069" r="14.5000"/>
    <circle cx="93.3771" cy="32.1069" r="14.5000"/>
    <circle cx="124.0122" cy="32.1069" r="14.5000"/>
    <circle cx="154.6473" cy="32.1069" r="14.5000"/>
    <circle cx="185.2824" cy="32.1069" r="14.5000"/>
  </g>
  <g id="koordinaten" font-family="system-ui,Segoe UI,sans-serif" font-weight="800" font-size="8.42" text-anchor="middle" dominant-baseline="middle" fill="#1a1a1a">
    <text x="32.1069" y="8.0947">1</text>
    <text x="62.7420" y="8.0947">2</text>
    <text x="93.3771" y="8.0947">3</text>
    <text x="124.0122" y="8.0947">4</text>
    <text x="154.6473" y="8.0947">5</text>
    <text x="185.2824" y="8.0947">6</text>
    <text x="8.0947" y="185.2824">6</text>
    <text x="8.0947" y="154.6473">5</text>
    <text x="8.0947" y="124.0122">4</text>
    <text x="8.0947" y="93.3771">3</text>
    <text x="8.0947" y="62.7420">2</text>
    <text x="8.0947" y="32.1069">1</text>
  </g>
</svg>
