<?xml version="1.0" encoding="UTF-8"?>
<svg xmlns="http://www.w3.org/2000/svg" width="200.0mm" height="200.0mm" viewBox="0 0 200.0 200.0">
  <title>Spielfeld 200mm Glaskiesel</title>
  <rect x="0" y="0" width="200.0" height="200.0" fill="#f4e4c1" stroke="#333" stroke-width="0.25"/>
  <rect x="0" y="0" width="16.189312977099238" height="16.189312977099238" fill="none" stroke="#999" stroke-dasharray="1 1" stroke-width="0.15"/>
  <g id="mulden" fill="none" stroke="#1a8c8a" stroke-width="0.2">
    <rect x="0.2176" y="170.7824" width="29.0000" height="29.0000" rx="4.8000" ry="4.8000"/>
    <rect x="30.8527" y="170.7824" width="29.0000" height="29.0000" rx="4.8000" ry="4.8000"/>
    <rect x="61.4878" y="170.7824" width="29.0000" height="29.0000" rx="4.8000" ry="4.8000"/>
    <rect x="92.1229" y="170.7824" width="29.0000" height="29.0000" rx="4.8000" ry="4.8000"/>
    <rect x="122.7580" y="170.7824" width="29.0000" height="29.0000" rx="4.8000" ry="4.8000"/>
    <rect x="153.3931" y="170.7824" width="29.0000" height="29.0000" rx="4.8000" ry="4.8000"/>
    <rect x="0.2176" y="140.1473" width="29.0000" height="29.0000" rx="4.8000" ry="4.8000"/>
    <rect x="30.8527" y="140.1473" width="29.0000" height="29.0000" rx="4.8000" ry="4.8000"/>
    <rect x="61.4878" y="140.1473" width="29.0000" height="29.0000" rx="4.8000" ry="4.8000"/>
    <rect x="92.1229" y="140.1473" width="29.0000" height="29.0000" rx="4.8000" ry="4.8000"/>
    <rect x="122.7580" y="140.1473" width="29.0000" height="29.0000" rx="4.8000" ry="4.8000"/>
    <rect x="153.3931" y="140.1473" width="29.0000" height="29.0000" rx="4.8000" ry="4.8000"/>
    <rect x="0.2176" y="109.5122" width="29.0000" height="29.0000" rx="4.8000" ry="4.8000"/>
    <rect x="30.8527" y="109.5122" width="29.0000" height="29.0000" rx="4.8000" ry="4.8000"/>
    <rect x="61.4878" y="109.5122" width="29.0000" height="29.0000" rx="4.8000" ry="4.8000"/>
    <rect x="92.1229" y="109.5122" width="29.0000" height="29.0000" rx="4.8000" ry="4.8000"/>
    <rect x="122.7580" y="109.5122" width="29.0000" height="29.0000" rx="4.8000" ry="4.8000"/>
    <rect x="153.3931" y="109.5122" width="29.0000" height="29.0000" rx="4.8000" ry="4.8000"/>
    <rect x="0.2176" y="78.8771" width="29.0000" height="29.0000" rx="4.8000" ry="4.8000"/>
    <rect x="30.8527" y="78.8771" width="29.0000" height="29.0000" rx="4.8000" ry="4.8000"/>
    <rect x="61.4878" y="78.8771" width="29.0000" height="29.0000" rx="4.8000" ry="4.8000"/>
    <rect x="92.1229" y="78.8771" width="29.0000" height="29.0000" rx="4.8000" ry="4.8000"/>
    <rect x="122.7580" y="78.8771" width="29.0000" height="29.0000" rx="4.8000" ry="4.8000"/>
    <rect x="153.3931" y="78.8771" width="29.0000" height="29.0000" rx="4.8000" ry="4.8000"/>
    <rect x="0.2176" y="48.2420" width="29.0000" height="29.0000" rx="4.8000" ry="4.8000"/>
    <rect x="30.8527" y="48.2420" width="29.0000" height="29.0000" rx="4.8000" ry="4.8000"/>
    <rect x="61.4878" y="48.2420" width="29.0000" height="29.0000" rx="4.8000" ry="4.8000"/>
    <rect x="92.1229" y="48.2420" width="29.0000" height="29.0000" rx="4.8000" ry="4.8000"/>
    <rect x="122.7580" y="48.2420" width="29.0000" height="29.0000" rx="4.8000" ry="4.8000"/>
    <rect x="153.3931" y="48.2420" width="29.0000" height="29.0000" rx="4.8000" ry="4.8000"/>
    <rect x="0.2176" y="17.6069" width="29.0000" height="29.0000" rx="4.8000" ry="4.8000"/>
    <rect x="30.8527" y="17.6069" width="29.0000" height="29.0000" rx="4.8000" ry="4.8000"/>
    <rect x="61.4878" y="17.6069" width="29.0000" height="29.0000" rx="4.8000" ry="4.8000"/>
    <rect x="92.1229" y="17.6069" width="29.0000" height="29.0000" rx="4.8000" ry="4.8000"/>
    <rect x="122.7580" y="17.6069" width="29.0000" height="29.0000" rx="4.8000" ry="4.8000"/>
    <rect x="153.3931" y="17.6069" width="29.0000" height="29.0000" rx="4.8000" ry="4.8000"/>
  </g>
  <g id="koordinaten" font-family="system-ui,Segoe UI,sans-serif" font-weight="800" font-size="8.42" text-anchor="middle" dominant-baseline="middle" fill="#1a1a1a">
    <text x="14.7176" y="8.0947">1</text>
    <text x="45.3527" y="8.0947">2</text>
    <text x="75.9878" y="8.0947">3</text>
    <text x="106.6229" y="8.0947">4</text>
    <text x="137.2580" y="8.0947">5</text>
    <text x="167.8931" y="8.0947">6</text>
    <text x="8.0947" y="185.2824">6</text>
    <text x="8.0947" y="154.6473">5</text>
    <text x="8.0947" y="124.0122">4</text>
    <text x="8.0947" y="93.3771">3</text>
    <text x="8.0947" y="62.7420">2</text>
    <text x="8.0947" y="32.1069">1</text>
  </g>
</svg>
