0
SECTION
2
HEADER
9
$ACADVER
1
AC1009
0
ENDSEC
0
SECTION
2
TABLES
0
ENDSEC
0
SECTION
2
BLOCKS
0
ENDSEC
0
SECTION
2
ENTITIES
0
POLYLINE
8
0
66
1
70
1
0
VERTEX
8
0
10
0.000000
20
0.000000
0
VERTEX
8
0
10
200.000000
20
0.000000
0
VERTEX
8
0
10
200.000000
20
200.000000
0
VERTEX
8
0
10
0.000000
20
200.000000
0
SEQEND
0
POLYLINE
8
0
66
1
70
1
0
VERTEX
8
0
10
0.000000
20
183.810687
0
VERTEX
8
0
10
16.189313
20
183.810687
0
VERTEX
8
0
10
16.189313
20
200.000000
0
VERTEX
8
0
10
0.000000
20
200.000000
0
SEQEND
0
CIRCLE
8
0
10
32.106870
20
14.717557
40
14.500000
0
CIRCLE
8
0
10
62.741985
20
14.717557
40
14.500000
0
CIRCLE
8
0
10
93.377099
20
14.717557
40
14.500000
0
CIRCLE
8
0
10
124.012214
20
14.717557
40
14.500000
0
CIRCLE
8
0
10
154.647328
20
14.717557
40
14.500000
0
CIRCLE
8
0
10
185.282443
20
14.717557
40
14.500000
0
CIRCLE
8
0
10
32.106870
20
45.352672
40
14.500000
0
CIRCLE
8
0
10
62.741985
20
45.352672
40
14.500000
0
CIRCLE
8
0
10
93.377099
20
45.352672
40
14.500000
0
CIRCLE
8
0
10
124.012214
20
45.352672
40
14.500000
0
CIRCLE
8
0
10
154.647328
20
45.352672
40
14.500000
0
CIRCLE
8
0
10
185.282443
20
45.352672
40
14.500000
0
CIRCLE
8
0
10
32.106870
20
75.987786
40
14.500000
0
CIRCLE
8
0
10
62.741985
20
75.987786
40
14.500000
0
CIRCLE
8
0
10
93.377099
20
75.987786
40
14.500000
0
CIRCLE
8
0
10
124.012214
20
75.987786
40
14.500000
0
CIRCLE
8
0
10
154.647328
20
75.987786
40
14.500000
0
CIRCLE
8
0
10
185.282443
20
75.987786
40
14.500000
0
CIRCLE
8
0
10
32.106870
20
106.622901
40
14.500000
0
CIRCLE
8
0
10
62.741985
20
106.622901
40
14.500000
0
CIRCLE
8
0
10
93.377099
20
106.622901
40
14.500000
0
CIRCLE
8
0
10
124.012214
20
106.622901
40
14.500000
0
CIRCLE
8
0
10
154.647328
20
106.622901
40
14.500000
0
CIRCLE
8
0
10
185.282443
20
106.622901
40
14.500000
0
CIRCLE
8
0
10
32.106870
20
137.258015
40
14.500000
0
CIRCLE
8
0
10
62.741985
20
137.258015
40
14.500000
0
CIRCLE
8
0
10
93.377099
20
137.258015
40
14.500000
0
CIRCLE
8
0
10
124.012214
20
137.258015
40
14.500000
0
CIRCLE
8
0
10
154.647328
20
137.258015
40
14.500000
0
CIRCLE
8
0
10
185.282443
20
137.258015
40
14.500000
0
CIRCLE
8
0
10
32.106870
20
167.893130
40
14.500000
0
CIRCLE
8
0
10
62.741985
20
167.893130
40
14.500000
0
CIRCLE
8
0
10
93.377099
20
167.893130
40
14.500000
0
CIRCLE
8
0
10
124.012214
20
167.893130
40
14.500000
0
CIRCLE
8
0
10
154.647328
20
167.893130
40
14.500000
0
CIRCLE
8
0
10
185.282443
20
167.893130
40
14.500000
0
TEXT
8
0
10
32.106870
20
191.905344
40
7.770870
1
1
0
TEXT
8
0
10
62.741985
20
191.905344
40
7.770870
1
2
0
TEXT
8
0
10
93.377099
20
191.905344
40
7.770870
1
3
0
TEXT
8
0
10
124.012214
20
191.905344
40
7.770870
1
4
0
TEXT
8
0
10
154.647328
20
191.905344
40
7.770870
1
5
0
TEXT
8
0
10
185.282443
20
191.905344
40
7.770870
1
6
0
TEXT
8
0
10
8.094656
20
14.717557
40
7.770870
1
6
0
TEXT
8
0
10
8.094656
20
45.352672
40
7.770870
1
5
0
TEXT
8
0
10
8.094656
20
75.987786
40
7.770870
1
4
0
TEXT
8
0
10
8.094656
20
106.622901
40
7.770870
1
3
0
TEXT
8
0
10
8.094656
20
137.258015
40
7.770870
1
2
0
TEXT
8
0
10
8.094656
20
167.893130
40
7.770870
1
1
0
ENDSEC
0
EOF
