0
SECTION
2
HEADER
9
$ACADVER
1
AC1009
0
ENDSEC
0
SECTION
2
TABLES
0
ENDSEC
0
SECTION
2
BLOCKS
0
ENDSEC
0
SECTION
2
ENTITIES
0
POLYLINE
8
0
66
1
70
1
0
VERTEX
8
0
10
0.000000
20
0.000000
0
VERTEX
8
0
10
200.000000
20
0.000000
0
VERTEX
8
0
10
200.000000
20
200.000000
0
VERTEX
8
0
10
0.000000
20
200.000000
0
SEQEND
0
POLYLINE
8
0
66
1
70
1
0
VERTEX
8
0
10
0.000000
20
183.810687
0
VERTEX
8
0
10
16.189313
20
183.810687
0
VERTEX
8
0
10
16.189313
20
200.000000
0
VERTEX
8
0
10
0.000000
20
200.000000
0
SEQEND
0
POLYLINE
8
0
66
1
70
1
0
VERTEX
8
0
10
29.217557
20
24.417557
0
VERTEX
8
0
10
28.982629
20
25.900839
0
VERTEX
8
0
10
28.300839
20
27.238926
0
VERTEX
8
0
10
27.238926
20
28.300839
0
VERTEX
8
0
10
25.900839
20
28.982629
0
VERTEX
8
0
10
24.417557
20
29.217557
0
VERTEX
8
0
10
5.017557
20
29.217557
0
VERTEX
8
0
10
3.534276
20
28.982629
0
VERTEX
8
0
10
2.196188
20
28.300839
0
VERTEX
8
0
10
1.134276
20
27.238926
0
VERTEX
8
0
10
0.452486
20
25.900839
0
VERTEX
8
0
10
0.217557
20
24.417557
0
VERTEX
8
0
10
0.217557
20
5.017557
0
VERTEX
8
0
10
0.452486
20
3.534276
0
VERTEX
8
0
10
1.134276
20
2.196188
0
VERTEX
8
0
10
2.196188
20
1.134276
0
VERTEX
8
0
10
3.534276
20
0.452486
0
VERTEX
8
0
10
5.017557
20
0.217557
0
VERTEX
8
0
10
24.417557
20
0.217557
0
VERTEX
8
0
10
25.900839
20
0.452486
0
VERTEX
8
0
10
27.238926
20
1.134276
0
VERTEX
8
0
10
28.300839
20
2.196188
0
VERTEX
8
0
10
28.982629
20
3.534276
0
VERTEX
8
0
10
29.217557
20
5.017557
0
SEQEND
0
POLYLINE
8
0
66
1
70
1
0
VERTEX
8
0
10
59.852672
20
24.417557
0
VERTEX
8
0
10
59.617743
20
25.900839
0
VERTEX
8
0
10
58.935953
20
27.238926
0
VERTEX
8
0
10
57.874041
20
28.300839
0
VERTEX
8
0
10
56.535953
20
28.982629
0
VERTEX
8
0
10
55.052672
20
29.217557
0
VERTEX
8
0
10
35.652672
20
29.217557
0
VERTEX
8
0
10
34.169390
20
28.982629
0
VERTEX
8
0
10
32.831303
20
28.300839
0
VERTEX
8
0
10
31.769390
20
27.238926
0
VERTEX
8
0
10
31.087600
20
25.900839
0
VERTEX
8
0
10
30.852672
20
24.417557
0
VERTEX
8
0
10
30.852672
20
5.017557
0
VERTEX
8
0
10
31.087600
20
3.534276
0
VERTEX
8
0
10
31.769390
20
2.196188
0
VERTEX
8
0
10
32.831303
20
1.134276
0
VERTEX
8
0
10
34.169390
20
0.452486
0
VERTEX
8
0
10
35.652672
20
0.217557
0
VERTEX
8
0
10
55.052672
20
0.217557
0
VERTEX
8
0
10
56.535953
20
0.452486
0
VERTEX
8
0
10
57.874041
20
1.134276
0
VERTEX
8
0
10
58.935953
20
2.196188
0
VERTEX
8
0
10
59.617743
20
3.534276
0
VERTEX
8
0
10
59.852672
20
5.017557
0
SEQEND
0
POLYLINE
8
0
66
1
70
1
0
VERTEX
8
0
10
90.487786
20
24.417557
0
VERTEX
8
0
10
90.252858
20
25.900839
0
VERTEX
8
0
10
89.571068
20
27.238926
0
VERTEX
8
0
10
88.509155
20
28.300839
0
VERTEX
8
0
10
87.171068
20
28.982629
0
VERTEX
8
0
10
85.687786
20
29.217557
0
VERTEX
8
0
10
66.287786
20
29.217557
0
VERTEX
8
0
10
64.804505
20
28.982629
0
VERTEX
8
0
10
63.466417
20
28.300839
0
VERTEX
8
0
10
62.404505
20
27.238926
0
VERTEX
8
0
10
61.722715
20
25.900839
0
VERTEX
8
0
10
61.487786
20
24.417557
0
VERTEX
8
0
10
61.487786
20
5.017557
0
VERTEX
8
0
10
61.722715
20
3.534276
0
VERTEX
8
0
10
62.404505
20
2.196188
0
VERTEX
8
0
10
63.466417
20
1.134276
0
VERTEX
8
0
10
64.804505
20
0.452486
0
VERTEX
8
0
10
66.287786
20
0.217557
0
VERTEX
8
0
10
85.687786
20
0.217557
0
VERTEX
8
0
10
87.171068
20
0.452486
0
VERTEX
8
0
10
88.509155
20
1.134276
0
VERTEX
8
0
10
89.571068
20
2.196188
0
VERTEX
8
0
10
90.252858
20
3.534276
0
VERTEX
8
0
10
90.487786
20
5.017557
0
SEQEND
0
POLYLINE
8
0
66
1
70
1
0
VERTEX
8
0
10
121.122901
20
24.417557
0
VERTEX
8
0
10
120.887972
20
25.900839
0
VERTEX
8
0
10
120.206182
20
27.238926
0
VERTEX
8
0
10
119.144270
20
28.300839
0
VERTEX
8
0
10
117.806182
20
28.982629
0
VERTEX
8
0
10
116.322901
20
29.217557
0
VERTEX
8
0
10
96.922901
20
29.217557
0
VERTEX
8
0
10
95.439619
20
28.982629
0
VERTEX
8
0
10
94.101532
20
28.300839
0
VERTEX
8
0
10
93.039619
20
27.238926
0
VERTEX
8
0
10
92.357829
20
25.900839
0
VERTEX
8
0
10
92.122901
20
24.417557
0
VERTEX
8
0
10
92.122901
20
5.017557
0
VERTEX
8
0
10
92.357829
20
3.534276
0
VERTEX
8
0
10
93.039619
20
2.196188
0
VERTEX
8
0
10
94.101532
20
1.134276
0
VERTEX
8
0
10
95.439619
20
0.452486
0
VERTEX
8
0
10
96.922901
20
0.217557
0
VERTEX
8
0
10
116.322901
20
0.217557
0
VERTEX
8
0
10
117.806182
20
0.452486
0
VERTEX
8
0
10
119.144270
20
1.134276
0
VERTEX
8
0
10
120.206182
20
2.196188
0
VERTEX
8
0
10
120.887972
20
3.534276
0
VERTEX
8
0
10
121.122901
20
5.017557
0
SEQEND
0
POLYLINE
8
0
66
1
70
1
0
VERTEX
8
0
10
151.758015
20
24.417557
0
VERTEX
8
0
10
151.523087
20
25.900839
0
VERTEX
8
0
10
150.841297
20
27.238926
0
VERTEX
8
0
10
149.779384
20
28.300839
0
VERTEX
8
0
10
148.441297
20
28.982629
0
VERTEX
8
0
10
146.958015
20
29.217557
0
VERTEX
8
0
10
127.558015
20
29.217557
0
VERTEX
8
0
10
126.074734
20
28.982629
0
VERTEX
8
0
10
124.736646
20
28.300839
0
VERTEX
8
0
10
123.674734
20
27.238926
0
VERTEX
8
0
10
122.992944
20
25.900839
0
VERTEX
8
0
10
122.758015
20
24.417557
0
VERTEX
8
0
10
122.758015
20
5.017557
0
VERTEX
8
0
10
122.992944
20
3.534276
0
VERTEX
8
0
10
123.674734
20
2.196188
0
VERTEX
8
0
10
124.736646
20
1.134276
0
VERTEX
8
0
10
126.074734
20
0.452486
0
VERTEX
8
0
10
127.558015
20
0.217557
0
VERTEX
8
0
10
146.958015
20
0.217557
0
VERTEX
8
0
10
148.441297
20
0.452486
0
VERTEX
8
0
10
149.779384
20
1.134276
0
VERTEX
8
0
10
150.841297
20
2.196188
0
VERTEX
8
0
10
151.523087
20
3.534276
0
VERTEX
8
0
10
151.758015
20
5.017557
0
SEQEND
0
POLYLINE
8
0
66
1
70
1
0
VERTEX
8
0
10
182.393130
20
24.417557
0
VERTEX
8
0
10
182.158201
20
25.900839
0
VERTEX
8
0
10
181.476411
20
27.238926
0
VERTEX
8
0
10
180.414499
20
28.300839
0
VERTEX
8
0
10
179.076411
20
28.982629
0
VERTEX
8
0
10
177.593130
20
29.217557
0
VERTEX
8
0
10
158.193130
20
29.217557
0
VERTEX
8
0
10
156.709848
20
28.982629
0
VERTEX
8
0
10
155.371761
20
28.300839
0
VERTEX
8
0
10
154.309848
20
27.238926
0
VERTEX
8
0
10
153.628058
20
25.900839
0
VERTEX
8
0
10
153.393130
20
24.417557
0
VERTEX
8
0
10
153.393130
20
5.017557
0
VERTEX
8
0
10
153.628058
20
3.534276
0
VERTEX
8
0
10
154.309848
20
2.196188
0
VERTEX
8
0
10
155.371761
20
1.134276
0
VERTEX
8
0
10
156.709848
20
0.452486
0
VERTEX
8
0
10
158.193130
20
0.217557
0
VERTEX
8
0
10
177.593130
20
0.217557
0
VERTEX
8
0
10
179.076411
20
0.452486
0
VERTEX
8
0
10
180.414499
20
1.134276
0
VERTEX
8
0
10
181.476411
20
2.196188
0
VERTEX
8
0
10
182.158201
20
3.534276
0
VERTEX
8
0
10
182.393130
20
5.017557
0
SEQEND
0
POLYLINE
8
0
66
1
70
1
0
VERTEX
8
0
10
29.217557
20
55.052672
0
VERTEX
8
0
10
28.982629
20
56.535953
0
VERTEX
8
0
10
28.300839
20
57.874041
0
VERTEX
8
0
10
27.238926
20
58.935953
0
VERTEX
8
0
10
25.900839
20
59.617743
0
VERTEX
8
0
10
24.417557
20
59.852672
0
VERTEX
8
0
10
5.017557
20
59.852672
0
VERTEX
8
0
10
3.534276
20
59.617743
0
VERTEX
8
0
10
2.196188
20
58.935953
0
VERTEX
8
0
10
1.134276
20
57.874041
0
VERTEX
8
0
10
0.452486
20
56.535953
0
VERTEX
8
0
10
0.217557
20
55.052672
0
VERTEX
8
0
10
0.217557
20
35.652672
0
VERTEX
8
0
10
0.452486
20
34.169390
0
VERTEX
8
0
10
1.134276
20
32.831303
0
VERTEX
8
0
10
2.196188
20
31.769390
0
VERTEX
8
0
10
3.534276
20
31.087600
0
VERTEX
8
0
10
5.017557
20
30.852672
0
VERTEX
8
0
10
24.417557
20
30.852672
0
VERTEX
8
0
10
25.900839
20
31.087600
0
VERTEX
8
0
10
27.238926
20
31.769390
0
VERTEX
8
0
10
28.300839
20
32.831303
0
VERTEX
8
0
10
28.982629
20
34.169390
0
VERTEX
8
0
10
29.217557
20
35.652672
0
SEQEND
0
POLYLINE
8
0
66
1
70
1
0
VERTEX
8
0
10
59.852672
20
55.052672
0
VERTEX
8
0
10
59.617743
20
56.535953
0
VERTEX
8
0
10
58.935953
20
57.874041
0
VERTEX
8
0
10
57.874041
20
58.935953
0
VERTEX
8
0
10
56.535953
20
59.617743
0
VERTEX
8
0
10
55.052672
20
59.852672
0
VERTEX
8
0
10
35.652672
20
59.852672
0
VERTEX
8
0
10
34.169390
20
59.617743
0
VERTEX
8
0
10
32.831303
20
58.935953
0
VERTEX
8
0
10
31.769390
20
57.874041
0
VERTEX
8
0
10
31.087600
20
56.535953
0
VERTEX
8
0
10
30.852672
20
55.052672
0
VERTEX
8
0
10
30.852672
20
35.652672
0
VERTEX
8
0
10
31.087600
20
34.169390
0
VERTEX
8
0
10
31.769390
20
32.831303
0
VERTEX
8
0
10
32.831303
20
31.769390
0
VERTEX
8
0
10
34.169390
20
31.087600
0
VERTEX
8
0
10
35.652672
20
30.852672
0
VERTEX
8
0
10
55.052672
20
30.852672
0
VERTEX
8
0
10
56.535953
20
31.087600
0
VERTEX
8
0
10
57.874041
20
31.769390
0
VERTEX
8
0
10
58.935953
20
32.831303
0
VERTEX
8
0
10
59.617743
20
34.169390
0
VERTEX
8
0
10
59.852672
20
35.652672
0
SEQEND
0
POLYLINE
8
0
66
1
70
1
0
VERTEX
8
0
10
90.487786
20
55.052672
0
VERTEX
8
0
10
90.252858
20
56.535953
0
VERTEX
8
0
10
89.571068
20
57.874041
0
VERTEX
8
0
10
88.509155
20
58.935953
0
VERTEX
8
0
10
87.171068
20
59.617743
0
VERTEX
8
0
10
85.687786
20
59.852672
0
VERTEX
8
0
10
66.287786
20
59.852672
0
VERTEX
8
0
10
64.804505
20
59.617743
0
VERTEX
8
0
10
63.466417
20
58.935953
0
VERTEX
8
0
10
62.404505
20
57.874041
0
VERTEX
8
0
10
61.722715
20
56.535953
0
VERTEX
8
0
10
61.487786
20
55.052672
0
VERTEX
8
0
10
61.487786
20
35.652672
0
VERTEX
8
0
10
61.722715
20
34.169390
0
VERTEX
8
0
10
62.404505
20
32.831303
0
VERTEX
8
0
10
63.466417
20
31.769390
0
VERTEX
8
0
10
64.804505
20
31.087600
0
VERTEX
8
0
10
66.287786
20
30.852672
0
VERTEX
8
0
10
85.687786
20
30.852672
0
VERTEX
8
0
10
87.171068
20
31.087600
0
VERTEX
8
0
10
88.509155
20
31.769390
0
VERTEX
8
0
10
89.571068
20
32.831303
0
VERTEX
8
0
10
90.252858
20
34.169390
0
VERTEX
8
0
10
90.487786
20
35.652672
0
SEQEND
0
POLYLINE
8
0
66
1
70
1
0
VERTEX
8
0
10
121.122901
20
55.052672
0
VERTEX
8
0
10
120.887972
20
56.535953
0
VERTEX
8
0
10
120.206182
20
57.874041
0
VERTEX
8
0
10
119.144270
20
58.935953
0
VERTEX
8
0
10
117.806182
20
59.617743
0
VERTEX
8
0
10
116.322901
20
59.852672
0
VERTEX
8
0
10
96.922901
20
59.852672
0
VERTEX
8
0
10
95.439619
20
59.617743
0
VERTEX
8
0
10
94.101532
20
58.935953
0
VERTEX
8
0
10
93.039619
20
57.874041
0
VERTEX
8
0
10
92.357829
20
56.535953
0
VERTEX
8
0
10
92.122901
20
55.052672
0
VERTEX
8
0
10
92.122901
20
35.652672
0
VERTEX
8
0
10
92.357829
20
34.169390
0
VERTEX
8
0
10
93.039619
20
32.831303
0
VERTEX
8
0
10
94.101532
20
31.769390
0
VERTEX
8
0
10
95.439619
20
31.087600
0
VERTEX
8
0
10
96.922901
20
30.852672
0
VERTEX
8
0
10
116.322901
20
30.852672
0
VERTEX
8
0
10
117.806182
20
31.087600
0
VERTEX
8
0
10
119.144270
20
31.769390
0
VERTEX
8
0
10
120.206182
20
32.831303
0
VERTEX
8
0
10
120.887972
20
34.169390
0
VERTEX
8
0
10
121.122901
20
35.652672
0
SEQEND
0
POLYLINE
8
0
66
1
70
1
0
VERTEX
8
0
10
151.758015
20
55.052672
0
VERTEX
8
0
10
151.523087
20
56.535953
0
VERTEX
8
0
10
150.841297
20
57.874041
0
VERTEX
8
0
10
149.779384
20
58.935953
0
VERTEX
8
0
10
148.441297
20
59.617743
0
VERTEX
8
0
10
146.958015
20
59.852672
0
VERTEX
8
0
10
127.558015
20
59.852672
0
VERTEX
8
0
10
126.074734
20
59.617743
0
VERTEX
8
0
10
124.736646
20
58.935953
0
VERTEX
8
0
10
123.674734
20
57.874041
0
VERTEX
8
0
10
122.992944
20
56.535953
0
VERTEX
8
0
10
122.758015
20
55.052672
0
VERTEX
8
0
10
122.758015
20
35.652672
0
VERTEX
8
0
10
122.992944
20
34.169390
0
VERTEX
8
0
10
123.674734
20
32.831303
0
VERTEX
8
0
10
124.736646
20
31.769390
0
VERTEX
8
0
10
126.074734
20
31.087600
0
VERTEX
8
0
10
127.558015
20
30.852672
0
VERTEX
8
0
10
146.958015
20
30.852672
0
VERTEX
8
0
10
148.441297
20
31.087600
0
VERTEX
8
0
10
149.779384
20
31.769390
0
VERTEX
8
0
10
150.841297
20
32.831303
0
VERTEX
8
0
10
151.523087
20
34.169390
0
VERTEX
8
0
10
151.758015
20
35.652672
0
SEQEND
0
POLYLINE
8
0
66
1
70
1
0
VERTEX
8
0
10
182.393130
20
55.052672
0
VERTEX
8
0
10
182.158201
20
56.535953
0
VERTEX
8
0
10
181.476411
20
57.874041
0
VERTEX
8
0
10
180.414499
20
58.935953
0
VERTEX
8
0
10
179.076411
20
59.617743
0
VERTEX
8
0
10
177.593130
20
59.852672
0
VERTEX
8
0
10
158.193130
20
59.852672
0
VERTEX
8
0
10
156.709848
20
59.617743
0
VERTEX
8
0
10
155.371761
20
58.935953
0
VERTEX
8
0
10
154.309848
20
57.874041
0
VERTEX
8
0
10
153.628058
20
56.535953
0
VERTEX
8
0
10
153.393130
20
55.052672
0
VERTEX
8
0
10
153.393130
20
35.652672
0
VERTEX
8
0
10
153.628058
20
34.169390
0
VERTEX
8
0
10
154.309848
20
32.831303
0
VERTEX
8
0
10
155.371761
20
31.769390
0
VERTEX
8
0
10
156.709848
20
31.087600
0
VERTEX
8
0
10
158.193130
20
30.852672
0
VERTEX
8
0
10
177.593130
20
30.852672
0
VERTEX
8
0
10
179.076411
20
31.087600
0
VERTEX
8
0
10
180.414499
20
31.769390
0
VERTEX
8
0
10
181.476411
20
32.831303
0
VERTEX
8
0
10
182.158201
20
34.169390
0
VERTEX
8
0
10
182.393130
20
35.652672
0
SEQEND
0
POLYLINE
8
0
66
1
70
1
0
VERTEX
8
0
10
29.217557
20
85.687786
0
VERTEX
8
0
10
28.982629
20
87.171068
0
VERTEX
8
0
10
28.300839
20
88.509155
0
VERTEX
8
0
10
27.238926
20
89.571068
0
VERTEX
8
0
10
25.900839
20
90.252858
0
VERTEX
8
0
10
24.417557
20
90.487786
0
VERTEX
8
0
10
5.017557
20
90.487786
0
VERTEX
8
0
10
3.534276
20
90.252858
0
VERTEX
8
0
10
2.196188
20
89.571068
0
VERTEX
8
0
10
1.134276
20
88.509155
0
VERTEX
8
0
10
0.452486
20
87.171068
0
VERTEX
8
0
10
0.217557
20
85.687786
0
VERTEX
8
0
10
0.217557
20
66.287786
0
VERTEX
8
0
10
0.452486
20
64.804505
0
VERTEX
8
0
10
1.134276
20
63.466417
0
VERTEX
8
0
10
2.196188
20
62.404505
0
VERTEX
8
0
10
3.534276
20
61.722715
0
VERTEX
8
0
10
5.017557
20
61.487786
0
VERTEX
8
0
10
24.417557
20
61.487786
0
VERTEX
8
0
10
25.900839
20
61.722715
0
VERTEX
8
0
10
27.238926
20
62.404505
0
VERTEX
8
0
10
28.300839
20
63.466417
0
VERTEX
8
0
10
28.982629
20
64.804505
0
VERTEX
8
0
10
29.217557
20
66.287786
0
SEQEND
0
POLYLINE
8
0
66
1
70
1
0
VERTEX
8
0
10
59.852672
20
85.687786
0
VERTEX
8
0
10
59.617743
20
87.171068
0
VERTEX
8
0
10
58.935953
20
88.509155
0
VERTEX
8
0
10
57.874041
20
89.571068
0
VERTEX
8
0
10
56.535953
20
90.252858
0
VERTEX
8
0
10
55.052672
20
90.487786
0
VERTEX
8
0
10
35.652672
20
90.487786
0
VERTEX
8
0
10
34.169390
20
90.252858
0
VERTEX
8
0
10
32.831303
20
89.571068
0
VERTEX
8
0
10
31.769390
20
88.509155
0
VERTEX
8
0
10
31.087600
20
87.171068
0
VERTEX
8
0
10
30.852672
20
85.687786
0
VERTEX
8
0
10
30.852672
20
66.287786
0
VERTEX
8
0
10
31.087600
20
64.804505
0
VERTEX
8
0
10
31.769390
20
63.466417
0
VERTEX
8
0
10
32.831303
20
62.404505
0
VERTEX
8
0
10
34.169390
20
61.722715
0
VERTEX
8
0
10
35.652672
20
61.487786
0
VERTEX
8
0
10
55.052672
20
61.487786
0
VERTEX
8
0
10
56.535953
20
61.722715
0
VERTEX
8
0
10
57.874041
20
62.404505
0
VERTEX
8
0
10
58.935953
20
63.466417
0
VERTEX
8
0
10
59.617743
20
64.804505
0
VERTEX
8
0
10
59.852672
20
66.287786
0
SEQEND
0
POLYLINE
8
0
66
1
70
1
0
VERTEX
8
0
10
90.487786
20
85.687786
0
VERTEX
8
0
10
90.252858
20
87.171068
0
VERTEX
8
0
10
89.571068
20
88.509155
0
VERTEX
8
0
10
88.509155
20
89.571068
0
VERTEX
8
0
10
87.171068
20
90.252858
0
VERTEX
8
0
10
85.687786
20
90.487786
0
VERTEX
8
0
10
66.287786
20
90.487786
0
VERTEX
8
0
10
64.804505
20
90.252858
0
VERTEX
8
0
10
63.466417
20
89.571068
0
VERTEX
8
0
10
62.404505
20
88.509155
0
VERTEX
8
0
10
61.722715
20
87.171068
0
VERTEX
8
0
10
61.487786
20
85.687786
0
VERTEX
8
0
10
61.487786
20
66.287786
0
VERTEX
8
0
10
61.722715
20
64.804505
0
VERTEX
8
0
10
62.404505
20
63.466417
0
VERTEX
8
0
10
63.466417
20
62.404505
0
VERTEX
8
0
10
64.804505
20
61.722715
0
VERTEX
8
0
10
66.287786
20
61.487786
0
VERTEX
8
0
10
85.687786
20
61.487786
0
VERTEX
8
0
10
87.171068
20
61.722715
0
VERTEX
8
0
10
88.509155
20
62.404505
0
VERTEX
8
0
10
89.571068
20
63.466417
0
VERTEX
8
0
10
90.252858
20
64.804505
0
VERTEX
8
0
10
90.487786
20
66.287786
0
SEQEND
0
POLYLINE
8
0
66
1
70
1
0
VERTEX
8
0
10
121.122901
20
85.687786
0
VERTEX
8
0
10
120.887972
20
87.171068
0
VERTEX
8
0
10
120.206182
20
88.509155
0
VERTEX
8
0
10
119.144270
20
89.571068
0
VERTEX
8
0
10
117.806182
20
90.252858
0
VERTEX
8
0
10
116.322901
20
90.487786
0
VERTEX
8
0
10
96.922901
20
90.487786
0
VERTEX
8
0
10
95.439619
20
90.252858
0
VERTEX
8
0
10
94.101532
20
89.571068
0
VERTEX
8
0
10
93.039619
20
88.509155
0
VERTEX
8
0
10
92.357829
20
87.171068
0
VERTEX
8
0
10
92.122901
20
85.687786
0
VERTEX
8
0
10
92.122901
20
66.287786
0
VERTEX
8
0
10
92.357829
20
64.804505
0
VERTEX
8
0
10
93.039619
20
63.466417
0
VERTEX
8
0
10
94.101532
20
62.404505
0
VERTEX
8
0
10
95.439619
20
61.722715
0
VERTEX
8
0
10
96.922901
20
61.487786
0
VERTEX
8
0
10
116.322901
20
61.487786
0
VERTEX
8
0
10
117.806182
20
61.722715
0
VERTEX
8
0
10
119.144270
20
62.404505
0
VERTEX
8
0
10
120.206182
20
63.466417
0
VERTEX
8
0
10
120.887972
20
64.804505
0
VERTEX
8
0
10
121.122901
20
66.287786
0
SEQEND
0
POLYLINE
8
0
66
1
70
1
0
VERTEX
8
0
10
151.758015
20
85.687786
0
VERTEX
8
0
10
151.523087
20
87.171068
0
VERTEX
8
0
10
150.841297
20
88.509155
0
VERTEX
8
0
10
149.779384
20
89.571068
0
VERTEX
8
0
10
148.441297
20
90.252858
0
VERTEX
8
0
10
146.958015
20
90.487786
0
VERTEX
8
0
10
127.558015
20
90.487786
0
VERTEX
8
0
10
126.074734
20
90.252858
0
VERTEX
8
0
10
124.736646
20
89.571068
0
VERTEX
8
0
10
123.674734
20
88.509155
0
VERTEX
8
0
10
122.992944
20
87.171068
0
VERTEX
8
0
10
122.758015
20
85.687786
0
VERTEX
8
0
10
122.758015
20
66.287786
0
VERTEX
8
0
10
122.992944
20
64.804505
0
VERTEX
8
0
10
123.674734
20
63.466417
0
VERTEX
8
0
10
124.736646
20
62.404505
0
VERTEX
8
0
10
126.074734
20
61.722715
0
VERTEX
8
0
10
127.558015
20
61.487786
0
VERTEX
8
0
10
146.958015
20
61.487786
0
VERTEX
8
0
10
148.441297
20
61.722715
0
VERTEX
8
0
10
149.779384
20
62.404505
0
VERTEX
8
0
10
150.841297
20
63.466417
0
VERTEX
8
0
10
151.523087
20
64.804505
0
VERTEX
8
0
10
151.758015
20
66.287786
0
SEQEND
0
POLYLINE
8
0
66
1
70
1
0
VERTEX
8
0
10
182.393130
20
85.687786
0
VERTEX
8
0
10
182.158201
20
87.171068
0
VERTEX
8
0
10
181.476411
20
88.509155
0
VERTEX
8
0
10
180.414499
20
89.571068
0
VERTEX
8
0
10
179.076411
20
90.252858
0
VERTEX
8
0
10
177.593130
20
90.487786
0
VERTEX
8
0
10
158.193130
20
90.487786
0
VERTEX
8
0
10
156.709848
20
90.252858
0
VERTEX
8
0
10
155.371761
20
89.571068
0
VERTEX
8
0
10
154.309848
20
88.509155
0
VERTEX
8
0
10
153.628058
20
87.171068
0
VERTEX
8
0
10
153.393130
20
85.687786
0
VERTEX
8
0
10
153.393130
20
66.287786
0
VERTEX
8
0
10
153.628058
20
64.804505
0
VERTEX
8
0
10
154.309848
20
63.466417
0
VERTEX
8
0
10
155.371761
20
62.404505
0
VERTEX
8
0
10
156.709848
20
61.722715
0
VERTEX
8
0
10
158.193130
20
61.487786
0
VERTEX
8
0
10
177.593130
20
61.487786
0
VERTEX
8
0
10
179.076411
20
61.722715
0
VERTEX
8
0
10
180.414499
20
62.404505
0
VERTEX
8
0
10
181.476411
20
63.466417
0
VERTEX
8
0
10
182.158201
20
64.804505
0
VERTEX
8
0
10
182.393130
20
66.287786
0
SEQEND
0
POLYLINE
8
0
66
1
70
1
0
VERTEX
8
0
10
29.217557
20
116.322901
0
VERTEX
8
0
10
28.982629
20
117.806182
0
VERTEX
8
0
10
28.300839
20
119.144270
0
VERTEX
8
0
10
27.238926
20
120.206182
0
VERTEX
8
0
10
25.900839
20
120.887972
0
VERTEX
8
0
10
24.417557
20
121.122901
0
VERTEX
8
0
10
5.017557
20
121.122901
0
VERTEX
8
0
10
3.534276
20
120.887972
0
VERTEX
8
0
10
2.196188
20
120.206182
0
VERTEX
8
0
10
1.134276
20
119.144270
0
VERTEX
8
0
10
0.452486
20
117.806182
0
VERTEX
8
0
10
0.217557
20
116.322901
0
VERTEX
8
0
10
0.217557
20
96.922901
0
VERTEX
8
0
10
0.452486
20
95.439619
0
VERTEX
8
0
10
1.134276
20
94.101532
0
VERTEX
8
0
10
2.196188
20
93.039619
0
VERTEX
8
0
10
3.534276
20
92.357829
0
VERTEX
8
0
10
5.017557
20
92.122901
0
VERTEX
8
0
10
24.417557
20
92.122901
0
VERTEX
8
0
10
25.900839
20
92.357829
0
VERTEX
8
0
10
27.238926
20
93.039619
0
VERTEX
8
0
10
28.300839
20
94.101532
0
VERTEX
8
0
10
28.982629
20
95.439619
0
VERTEX
8
0
10
29.217557
20
96.922901
0
SEQEND
0
POLYLINE
8
0
66
1
70
1
0
VERTEX
8
0
10
59.852672
20
116.322901
0
VERTEX
8
0
10
59.617743
20
117.806182
0
VERTEX
8
0
10
58.935953
20
119.144270
0
VERTEX
8
0
10
57.874041
20
120.206182
0
VERTEX
8
0
10
56.535953
20
120.887972
0
VERTEX
8
0
10
55.052672
20
121.122901
0
VERTEX
8
0
10
35.652672
20
121.122901
0
VERTEX
8
0
10
34.169390
20
120.887972
0
VERTEX
8
0
10
32.831303
20
120.206182
0
VERTEX
8
0
10
31.769390
20
119.144270
0
VERTEX
8
0
10
31.087600
20
117.806182
0
VERTEX
8
0
10
30.852672
20
116.322901
0
VERTEX
8
0
10
30.852672
20
96.922901
0
VERTEX
8
0
10
31.087600
20
95.439619
0
VERTEX
8
0
10
31.769390
20
94.101532
0
VERTEX
8
0
10
32.831303
20
93.039619
0
VERTEX
8
0
10
34.169390
20
92.357829
0
VERTEX
8
0
10
35.652672
20
92.122901
0
VERTEX
8
0
10
55.052672
20
92.122901
0
VERTEX
8
0
10
56.535953
20
92.357829
0
VERTEX
8
0
10
57.874041
20
93.039619
0
VERTEX
8
0
10
58.935953
20
94.101532
0
VERTEX
8
0
10
59.617743
20
95.439619
0
VERTEX
8
0
10
59.852672
20
96.922901
0
SEQEND
0
POLYLINE
8
0
66
1
70
1
0
VERTEX
8
0
10
90.487786
20
116.322901
0
VERTEX
8
0
10
90.252858
20
117.806182
0
VERTEX
8
0
10
89.571068
20
119.144270
0
VERTEX
8
0
10
88.509155
20
120.206182
0
VERTEX
8
0
10
87.171068
20
120.887972
0
VERTEX
8
0
10
85.687786
20
121.122901
0
VERTEX
8
0
10
66.287786
20
121.122901
0
VERTEX
8
0
10
64.804505
20
120.887972
0
VERTEX
8
0
10
63.466417
20
120.206182
0
VERTEX
8
0
10
62.404505
20
119.144270
0
VERTEX
8
0
10
61.722715
20
117.806182
0
VERTEX
8
0
10
61.487786
20
116.322901
0
VERTEX
8
0
10
61.487786
20
96.922901
0
VERTEX
8
0
10
61.722715
20
95.439619
0
VERTEX
8
0
10
62.404505
20
94.101532
0
VERTEX
8
0
10
63.466417
20
93.039619
0
VERTEX
8
0
10
64.804505
20
92.357829
0
VERTEX
8
0
10
66.287786
20
92.122901
0
VERTEX
8
0
10
85.687786
20
92.122901
0
VERTEX
8
0
10
87.171068
20
92.357829
0
VERTEX
8
0
10
88.509155
20
93.039619
0
VERTEX
8
0
10
89.571068
20
94.101532
0
VERTEX
8
0
10
90.252858
20
95.439619
0
VERTEX
8
0
10
90.487786
20
96.922901
0
SEQEND
0
POLYLINE
8
0
66
1
70
1
0
VERTEX
8
0
10
121.122901
20
116.322901
0
VERTEX
8
0
10
120.887972
20
117.806182
0
VERTEX
8
0
10
120.206182
20
119.144270
0
VERTEX
8
0
10
119.144270
20
120.206182
0
VERTEX
8
0
10
117.806182
20
120.887972
0
VERTEX
8
0
10
116.322901
20
121.122901
0
VERTEX
8
0
10
96.922901
20
121.122901
0
VERTEX
8
0
10
95.439619
20
120.887972
0
VERTEX
8
0
10
94.101532
20
120.206182
0
VERTEX
8
0
10
93.039619
20
119.144270
0
VERTEX
8
0
10
92.357829
20
117.806182
0
VERTEX
8
0
10
92.122901
20
116.322901
0
VERTEX
8
0
10
92.122901
20
96.922901
0
VERTEX
8
0
10
92.357829
20
95.439619
0
VERTEX
8
0
10
93.039619
20
94.101532
0
VERTEX
8
0
10
94.101532
20
93.039619
0
VERTEX
8
0
10
95.439619
20
92.357829
0
VERTEX
8
0
10
96.922901
20
92.122901
0
VERTEX
8
0
10
116.322901
20
92.122901
0
VERTEX
8
0
10
117.806182
20
92.357829
0
VERTEX
8
0
10
119.144270
20
93.039619
0
VERTEX
8
0
10
120.206182
20
94.101532
0
VERTEX
8
0
10
120.887972
20
95.439619
0
VERTEX
8
0
10
121.122901
20
96.922901
0
SEQEND
0
POLYLINE
8
0
66
1
70
1
0
VERTEX
8
0
10
151.758015
20
116.322901
0
VERTEX
8
0
10
151.523087
20
117.806182
0
VERTEX
8
0
10
150.841297
20
119.144270
0
VERTEX
8
0
10
149.779384
20
120.206182
0
VERTEX
8
0
10
148.441297
20
120.887972
0
VERTEX
8
0
10
146.958015
20
121.122901
0
VERTEX
8
0
10
127.558015
20
121.122901
0
VERTEX
8
0
10
126.074734
20
120.887972
0
VERTEX
8
0
10
124.736646
20
120.206182
0
VERTEX
8
0
10
123.674734
20
119.144270
0
VERTEX
8
0
10
122.992944
20
117.806182
0
VERTEX
8
0
10
122.758015
20
116.322901
0
VERTEX
8
0
10
122.758015
20
96.922901
0
VERTEX
8
0
10
122.992944
20
95.439619
0
VERTEX
8
0
10
123.674734
20
94.101532
0
VERTEX
8
0
10
124.736646
20
93.039619
0
VERTEX
8
0
10
126.074734
20
92.357829
0
VERTEX
8
0
10
127.558015
20
92.122901
0
VERTEX
8
0
10
146.958015
20
92.122901
0
VERTEX
8
0
10
148.441297
20
92.357829
0
VERTEX
8
0
10
149.779384
20
93.039619
0
VERTEX
8
0
10
150.841297
20
94.101532
0
VERTEX
8
0
10
151.523087
20
95.439619
0
VERTEX
8
0
10
151.758015
20
96.922901
0
SEQEND
0
POLYLINE
8
0
66
1
70
1
0
VERTEX
8
0
10
182.393130
20
116.322901
0
VERTEX
8
0
10
182.158201
20
117.806182
0
VERTEX
8
0
10
181.476411
20
119.144270
0
VERTEX
8
0
10
180.414499
20
120.206182
0
VERTEX
8
0
10
179.076411
20
120.887972
0
VERTEX
8
0
10
177.593130
20
121.122901
0
VERTEX
8
0
10
158.193130
20
121.122901
0
VERTEX
8
0
10
156.709848
20
120.887972
0
VERTEX
8
0
10
155.371761
20
120.206182
0
VERTEX
8
0
10
154.309848
20
119.144270
0
VERTEX
8
0
10
153.628058
20
117.806182
0
VERTEX
8
0
10
153.393130
20
116.322901
0
VERTEX
8
0
10
153.393130
20
96.922901
0
VERTEX
8
0
10
153.628058
20
95.439619
0
VERTEX
8
0
10
154.309848
20
94.101532
0
VERTEX
8
0
10
155.371761
20
93.039619
0
VERTEX
8
0
10
156.709848
20
92.357829
0
VERTEX
8
0
10
158.193130
20
92.122901
0
VERTEX
8
0
10
177.593130
20
92.122901
0
VERTEX
8
0
10
179.076411
20
92.357829
0
VERTEX
8
0
10
180.414499
20
93.039619
0
VERTEX
8
0
10
181.476411
20
94.101532
0
VERTEX
8
0
10
182.158201
20
95.439619
0
VERTEX
8
0
10
182.393130
20
96.922901
0
SEQEND
0
POLYLINE
8
0
66
1
70
1
0
VERTEX
8
0
10
29.217557
20
146.958015
0
VERTEX
8
0
10
28.982629
20
148.441297
0
VERTEX
8
0
10
28.300839
20
149.779384
0
VERTEX
8
0
10
27.238926
20
150.841297
0
VERTEX
8
0
10
25.900839
20
151.523087
0
VERTEX
8
0
10
24.417557
20
151.758015
0
VERTEX
8
0
10
5.017557
20
151.758015
0
VERTEX
8
0
10
3.534276
20
151.523087
0
VERTEX
8
0
10
2.196188
20
150.841297
0
VERTEX
8
0
10
1.134276
20
149.779384
0
VERTEX
8
0
10
0.452486
20
148.441297
0
VERTEX
8
0
10
0.217557
20
146.958015
0
VERTEX
8
0
10
0.217557
20
127.558015
0
VERTEX
8
0
10
0.452486
20
126.074734
0
VERTEX
8
0
10
1.134276
20
124.736646
0
VERTEX
8
0
10
2.196188
20
123.674734
0
VERTEX
8
0
10
3.534276
20
122.992944
0
VERTEX
8
0
10
5.017557
20
122.758015
0
VERTEX
8
0
10
24.417557
20
122.758015
0
VERTEX
8
0
10
25.900839
20
122.992944
0
VERTEX
8
0
10
27.238926
20
123.674734
0
VERTEX
8
0
10
28.300839
20
124.736646
0
VERTEX
8
0
10
28.982629
20
126.074734
0
VERTEX
8
0
10
29.217557
20
127.558015
0
SEQEND
0
POLYLINE
8
0
66
1
70
1
0
VERTEX
8
0
10
59.852672
20
146.958015
0
VERTEX
8
0
10
59.617743
20
148.441297
0
VERTEX
8
0
10
58.935953
20
149.779384
0
VERTEX
8
0
10
57.874041
20
150.841297
0
VERTEX
8
0
10
56.535953
20
151.523087
0
VERTEX
8
0
10
55.052672
20
151.758015
0
VERTEX
8
0
10
35.652672
20
151.758015
0
VERTEX
8
0
10
34.169390
20
151.523087
0
VERTEX
8
0
10
32.831303
20
150.841297
0
VERTEX
8
0
10
31.769390
20
149.779384
0
VERTEX
8
0
10
31.087600
20
148.441297
0
VERTEX
8
0
10
30.852672
20
146.958015
0
VERTEX
8
0
10
30.852672
20
127.558015
0
VERTEX
8
0
10
31.087600
20
126.074734
0
VERTEX
8
0
10
31.769390
20
124.736646
0
VERTEX
8
0
10
32.831303
20
123.674734
0
VERTEX
8
0
10
34.169390
20
122.992944
0
VERTEX
8
0
10
35.652672
20
122.758015
0
VERTEX
8
0
10
55.052672
20
122.758015
0
VERTEX
8
0
10
56.535953
20
122.992944
0
VERTEX
8
0
10
57.874041
20
123.674734
0
VERTEX
8
0
10
58.935953
20
124.736646
0
VERTEX
8
0
10
59.617743
20
126.074734
0
VERTEX
8
0
10
59.852672
20
127.558015
0
SEQEND
0
POLYLINE
8
0
66
1
70
1
0
VERTEX
8
0
10
90.487786
20
146.958015
0
VERTEX
8
0
10
90.252858
20
148.441297
0
VERTEX
8
0
10
89.571068
20
149.779384
0
VERTEX
8
0
10
88.509155
20
150.841297
0
VERTEX
8
0
10
87.171068
20
151.523087
0
VERTEX
8
0
10
85.687786
20
151.758015
0
VERTEX
8
0
10
66.287786
20
151.758015
0
VERTEX
8
0
10
64.804505
20
151.523087
0
VERTEX
8
0
10
63.466417
20
150.841297
0
VERTEX
8
0
10
62.404505
20
149.779384
0
VERTEX
8
0
10
61.722715
20
148.441297
0
VERTEX
8
0
10
61.487786
20
146.958015
0
VERTEX
8
0
10
61.487786
20
127.558015
0
VERTEX
8
0
10
61.722715
20
126.074734
0
VERTEX
8
0
10
62.404505
20
124.736646
0
VERTEX
8
0
10
63.466417
20
123.674734
0
VERTEX
8
0
10
64.804505
20
122.992944
0
VERTEX
8
0
10
66.287786
20
122.758015
0
VERTEX
8
0
10
85.687786
20
122.758015
0
VERTEX
8
0
10
87.171068
20
122.992944
0
VERTEX
8
0
10
88.509155
20
123.674734
0
VERTEX
8
0
10
89.571068
20
124.736646
0
VERTEX
8
0
10
90.252858
20
126.074734
0
VERTEX
8
0
10
90.487786
20
127.558015
0
SEQEND
0
POLYLINE
8
0
66
1
70
1
0
VERTEX
8
0
10
121.122901
20
146.958015
0
VERTEX
8
0
10
120.887972
20
148.441297
0
VERTEX
8
0
10
120.206182
20
149.779384
0
VERTEX
8
0
10
119.144270
20
150.841297
0
VERTEX
8
0
10
117.806182
20
151.523087
0
VERTEX
8
0
10
116.322901
20
151.758015
0
VERTEX
8
0
10
96.922901
20
151.758015
0
VERTEX
8
0
10
95.439619
20
151.523087
0
VERTEX
8
0
10
94.101532
20
150.841297
0
VERTEX
8
0
10
93.039619
20
149.779384
0
VERTEX
8
0
10
92.357829
20
148.441297
0
VERTEX
8
0
10
92.122901
20
146.958015
0
VERTEX
8
0
10
92.122901
20
127.558015
0
VERTEX
8
0
10
92.357829
20
126.074734
0
VERTEX
8
0
10
93.039619
20
124.736646
0
VERTEX
8
0
10
94.101532
20
123.674734
0
VERTEX
8
0
10
95.439619
20
122.992944
0
VERTEX
8
0
10
96.922901
20
122.758015
0
VERTEX
8
0
10
116.322901
20
122.758015
0
VERTEX
8
0
10
117.806182
20
122.992944
0
VERTEX
8
0
10
119.144270
20
123.674734
0
VERTEX
8
0
10
120.206182
20
124.736646
0
VERTEX
8
0
10
120.887972
20
126.074734
0
VERTEX
8
0
10
121.122901
20
127.558015
0
SEQEND
0
POLYLINE
8
0
66
1
70
1
0
VERTEX
8
0
10
151.758015
20
146.958015
0
VERTEX
8
0
10
151.523087
20
148.441297
0
VERTEX
8
0
10
150.841297
20
149.779384
0
VERTEX
8
0
10
149.779384
20
150.841297
0
VERTEX
8
0
10
148.441297
20
151.523087
0
VERTEX
8
0
10
146.958015
20
151.758015
0
VERTEX
8
0
10
127.558015
20
151.758015
0
VERTEX
8
0
10
126.074734
20
151.523087
0
VERTEX
8
0
10
124.736646
20
150.841297
0
VERTEX
8
0
10
123.674734
20
149.779384
0
VERTEX
8
0
10
122.992944
20
148.441297
0
VERTEX
8
0
10
122.758015
20
146.958015
0
VERTEX
8
0
10
122.758015
20
127.558015
0
VERTEX
8
0
10
122.992944
20
126.074734
0
VERTEX
8
0
10
123.674734
20
124.736646
0
VERTEX
8
0
10
124.736646
20
123.674734
0
VERTEX
8
0
10
126.074734
20
122.992944
0
VERTEX
8
0
10
127.558015
20
122.758015
0
VERTEX
8
0
10
146.958015
20
122.758015
0
VERTEX
8
0
10
148.441297
20
122.992944
0
VERTEX
8
0
10
149.779384
20
123.674734
0
VERTEX
8
0
10
150.841297
20
124.736646
0
VERTEX
8
0
10
151.523087
20
126.074734
0
VERTEX
8
0
10
151.758015
20
127.558015
0
SEQEND
0
POLYLINE
8
0
66
1
70
1
0
VERTEX
8
0
10
182.393130
20
146.958015
0
VERTEX
8
0
10
182.158201
20
148.441297
0
VERTEX
8
0
10
181.476411
20
149.779384
0
VERTEX
8
0
10
180.414499
20
150.841297
0
VERTEX
8
0
10
179.076411
20
151.523087
0
VERTEX
8
0
10
177.593130
20
151.758015
0
VERTEX
8
0
10
158.193130
20
151.758015
0
VERTEX
8
0
10
156.709848
20
151.523087
0
VERTEX
8
0
10
155.371761
20
150.841297
0
VERTEX
8
0
10
154.309848
20
149.779384
0
VERTEX
8
0
10
153.628058
20
148.441297
0
VERTEX
8
0
10
153.393130
20
146.958015
0
VERTEX
8
0
10
153.393130
20
127.558015
0
VERTEX
8
0
10
153.628058
20
126.074734
0
VERTEX
8
0
10
154.309848
20
124.736646
0
VERTEX
8
0
10
155.371761
20
123.674734
0
VERTEX
8
0
10
156.709848
20
122.992944
0
VERTEX
8
0
10
158.193130
20
122.758015
0
VERTEX
8
0
10
177.593130
20
122.758015
0
VERTEX
8
0
10
179.076411
20
122.992944
0
VERTEX
8
0
10
180.414499
20
123.674734
0
VERTEX
8
0
10
181.476411
20
124.736646
0
VERTEX
8
0
10
182.158201
20
126.074734
0
VERTEX
8
0
10
182.393130
20
127.558015
0
SEQEND
0
POLYLINE
8
0
66
1
70
1
0
VERTEX
8
0
10
29.217557
20
177.593130
0
VERTEX
8
0
10
28.982629
20
179.076411
0
VERTEX
8
0
10
28.300839
20
180.414499
0
VERTEX
8
0
10
27.238926
20
181.476411
0
VERTEX
8
0
10
25.900839
20
182.158201
0
VERTEX
8
0
10
24.417557
20
182.393130
0
VERTEX
8
0
10
5.017557
20
182.393130
0
VERTEX
8
0
10
3.534276
20
182.158201
0
VERTEX
8
0
10
2.196188
20
181.476411
0
VERTEX
8
0
10
1.134276
20
180.414499
0
VERTEX
8
0
10
0.452486
20
179.076411
0
VERTEX
8
0
10
0.217557
20
177.593130
0
VERTEX
8
0
10
0.217557
20
158.193130
0
VERTEX
8
0
10
0.452486
20
156.709848
0
VERTEX
8
0
10
1.134276
20
155.371761
0
VERTEX
8
0
10
2.196188
20
154.309848
0
VERTEX
8
0
10
3.534276
20
153.628058
0
VERTEX
8
0
10
5.017557
20
153.393130
0
VERTEX
8
0
10
24.417557
20
153.393130
0
VERTEX
8
0
10
25.900839
20
153.628058
0
VERTEX
8
0
10
27.238926
20
154.309848
0
VERTEX
8
0
10
28.300839
20
155.371761
0
VERTEX
8
0
10
28.982629
20
156.709848
0
VERTEX
8
0
10
29.217557
20
158.193130
0
SEQEND
0
POLYLINE
8
0
66
1
70
1
0
VERTEX
8
0
10
59.852672
20
177.593130
0
VERTEX
8
0
10
59.617743
20
179.076411
0
VERTEX
8
0
10
58.935953
20
180.414499
0
VERTEX
8
0
10
57.874041
20
181.476411
0
VERTEX
8
0
10
56.535953
20
182.158201
0
VERTEX
8
0
10
55.052672
20
182.393130
0
VERTEX
8
0
10
35.652672
20
182.393130
0
VERTEX
8
0
10
34.169390
20
182.158201
0
VERTEX
8
0
10
32.831303
20
181.476411
0
VERTEX
8
0
10
31.769390
20
180.414499
0
VERTEX
8
0
10
31.087600
20
179.076411
0
VERTEX
8
0
10
30.852672
20
177.593130
0
VERTEX
8
0
10
30.852672
20
158.193130
0
VERTEX
8
0
10
31.087600
20
156.709848
0
VERTEX
8
0
10
31.769390
20
155.371761
0
VERTEX
8
0
10
32.831303
20
154.309848
0
VERTEX
8
0
10
34.169390
20
153.628058
0
VERTEX
8
0
10
35.652672
20
153.393130
0
VERTEX
8
0
10
55.052672
20
153.393130
0
VERTEX
8
0
10
56.535953
20
153.628058
0
VERTEX
8
0
10
57.874041
20
154.309848
0
VERTEX
8
0
10
58.935953
20
155.371761
0
VERTEX
8
0
10
59.617743
20
156.709848
0
VERTEX
8
0
10
59.852672
20
158.193130
0
SEQEND
0
POLYLINE
8
0
66
1
70
1
0
VERTEX
8
0
10
90.487786
20
177.593130
0
VERTEX
8
0
10
90.252858
20
179.076411
0
VERTEX
8
0
10
89.571068
20
180.414499
0
VERTEX
8
0
10
88.509155
20
181.476411
0
VERTEX
8
0
10
87.171068
20
182.158201
0
VERTEX
8
0
10
85.687786
20
182.393130
0
VERTEX
8
0
10
66.287786
20
182.393130
0
VERTEX
8
0
10
64.804505
20
182.158201
0
VERTEX
8
0
10
63.466417
20
181.476411
0
VERTEX
8
0
10
62.404505
20
180.414499
0
VERTEX
8
0
10
61.722715
20
179.076411
0
VERTEX
8
0
10
61.487786
20
177.593130
0
VERTEX
8
0
10
61.487786
20
158.193130
0
VERTEX
8
0
10
61.722715
20
156.709848
0
VERTEX
8
0
10
62.404505
20
155.371761
0
VERTEX
8
0
10
63.466417
20
154.309848
0
VERTEX
8
0
10
64.804505
20
153.628058
0
VERTEX
8
0
10
66.287786
20
153.393130
0
VERTEX
8
0
10
85.687786
20
153.393130
0
VERTEX
8
0
10
87.171068
20
153.628058
0
VERTEX
8
0
10
88.509155
20
154.309848
0
VERTEX
8
0
10
89.571068
20
155.371761
0
VERTEX
8
0
10
90.252858
20
156.709848
0
VERTEX
8
0
10
90.487786
20
158.193130
0
SEQEND
0
POLYLINE
8
0
66
1
70
1
0
VERTEX
8
0
10
121.122901
20
177.593130
0
VERTEX
8
0
10
120.887972
20
179.076411
0
VERTEX
8
0
10
120.206182
20
180.414499
0
VERTEX
8
0
10
119.144270
20
181.476411
0
VERTEX
8
0
10
117.806182
20
182.158201
0
VERTEX
8
0
10
116.322901
20
182.393130
0
VERTEX
8
0
10
96.922901
20
182.393130
0
VERTEX
8
0
10
95.439619
20
182.158201
0
VERTEX
8
0
10
94.101532
20
181.476411
0
VERTEX
8
0
10
93.039619
20
180.414499
0
VERTEX
8
0
10
92.357829
20
179.076411
0
VERTEX
8
0
10
92.122901
20
177.593130
0
VERTEX
8
0
10
92.122901
20
158.193130
0
VERTEX
8
0
10
92.357829
20
156.709848
0
VERTEX
8
0
10
93.039619
20
155.371761
0
VERTEX
8
0
10
94.101532
20
154.309848
0
VERTEX
8
0
10
95.439619
20
153.628058
0
VERTEX
8
0
10
96.922901
20
153.393130
0
VERTEX
8
0
10
116.322901
20
153.393130
0
VERTEX
8
0
10
117.806182
20
153.628058
0
VERTEX
8
0
10
119.144270
20
154.309848
0
VERTEX
8
0
10
120.206182
20
155.371761
0
VERTEX
8
0
10
120.887972
20
156.709848
0
VERTEX
8
0
10
121.122901
20
158.193130
0
SEQEND
0
POLYLINE
8
0
66
1
70
1
0
VERTEX
8
0
10
151.758015
20
177.593130
0
VERTEX
8
0
10
151.523087
20
179.076411
0
VERTEX
8
0
10
150.841297
20
180.414499
0
VERTEX
8
0
10
149.779384
20
181.476411
0
VERTEX
8
0
10
148.441297
20
182.158201
0
VERTEX
8
0
10
146.958015
20
182.393130
0
VERTEX
8
0
10
127.558015
20
182.393130
0
VERTEX
8
0
10
126.074734
20
182.158201
0
VERTEX
8
0
10
124.736646
20
181.476411
0
VERTEX
8
0
10
123.674734
20
180.414499
0
VERTEX
8
0
10
122.992944
20
179.076411
0
VERTEX
8
0
10
122.758015
20
177.593130
0
VERTEX
8
0
10
122.758015
20
158.193130
0
VERTEX
8
0
10
122.992944
20
156.709848
0
VERTEX
8
0
10
123.674734
20
155.371761
0
VERTEX
8
0
10
124.736646
20
154.309848
0
VERTEX
8
0
10
126.074734
20
153.628058
0
VERTEX
8
0
10
127.558015
20
153.393130
0
VERTEX
8
0
10
146.958015
20
153.393130
0
VERTEX
8
0
10
148.441297
20
153.628058
0
VERTEX
8
0
10
149.779384
20
154.309848
0
VERTEX
8
0
10
150.841297
20
155.371761
0
VERTEX
8
0
10
151.523087
20
156.709848
0
VERTEX
8
0
10
151.758015
20
158.193130
0
SEQEND
0
POLYLINE
8
0
66
1
70
1
0
VERTEX
8
0
10
182.393130
20
177.593130
0
VERTEX
8
0
10
182.158201
20
179.076411
0
VERTEX
8
0
10
181.476411
20
180.414499
0
VERTEX
8
0
10
180.414499
20
181.476411
0
VERTEX
8
0
10
179.076411
20
182.158201
0
VERTEX
8
0
10
177.593130
20
182.393130
0
VERTEX
8
0
10
158.193130
20
182.393130
0
VERTEX
8
0
10
156.709848
20
182.158201
0
VERTEX
8
0
10
155.371761
20
181.476411
0
VERTEX
8
0
10
154.309848
20
180.414499
0
VERTEX
8
0
10
153.628058
20
179.076411
0
VERTEX
8
0
10
153.393130
20
177.593130
0
VERTEX
8
0
10
153.393130
20
158.193130
0
VERTEX
8
0
10
153.628058
20
156.709848
0
VERTEX
8
0
10
154.309848
20
155.371761
0
VERTEX
8
0
10
155.371761
20
154.309848
0
VERTEX
8
0
10
156.709848
20
153.628058
0
VERTEX
8
0
10
158.193130
20
153.393130
0
VERTEX
8
0
10
177.593130
20
153.393130
0
VERTEX
8
0
10
179.076411
20
153.628058
0
VERTEX
8
0
10
180.414499
20
154.309848
0
VERTEX
8
0
10
181.476411
20
155.371761
0
VERTEX
8
0
10
182.158201
20
156.709848
0
VERTEX
8
0
10
182.393130
20
158.193130
0
SEQEND
0
TEXT
8
0
10
14.717557
20
191.905344
11
14.717557
21
191.905344
40
7.770870
1
1
72
1
73
2
0
TEXT
8
0
10
45.352672
20
191.905344
11
45.352672
21
191.905344
40
7.770870
1
2
72
1
73
2
0
TEXT
8
0
10
75.987786
20
191.905344
11
75.987786
21
191.905344
40
7.770870
1
3
72
1
73
2
0
TEXT
8
0
10
106.622901
20
191.905344
11
106.622901
21
191.905344
40
7.770870
1
4
72
1
73
2
0
TEXT
8
0
10
137.258015
20
191.905344
11
137.258015
21
191.905344
40
7.770870
1
5
72
1
73
2
0
TEXT
8
0
10
167.893130
20
191.905344
11
167.893130
21
191.905344
40
7.770870
1
6
72
1
73
2
0
TEXT
8
0
10
8.094656
20
14.717557
11
8.094656
21
14.717557
40
7.770870
1
6
72
1
73
2
0
TEXT
8
0
10
8.094656
20
45.352672
11
8.094656
21
45.352672
40
7.770870
1
5
72
1
73
2
0
TEXT
8
0
10
8.094656
20
75.987786
11
8.094656
21
75.987786
40
7.770870
1
4
72
1
73
2
0
TEXT
8
0
10
8.094656
20
106.622901
11
8.094656
21
106.622901
40
7.770870
1
3
72
1
73
2
0
TEXT
8
0
10
8.094656
20
137.258015
11
8.094656
21
137.258015
40
7.770870
1
2
72
1
73
2
0
TEXT
8
0
10
8.094656
20
167.893130
11
8.094656
21
167.893130
40
7.770870
1
1
72
1
73
2
0
ENDSEC
0
EOF
