<?xml version="1.0" encoding="UTF-8"?>
<svg xmlns="http://www.w3.org/2000/svg" width="58.000mm" height="54.000mm" viewBox="0 0 58.000 54.000">
  <title>Herzmuschel - Aussenkontur</title>
  <g id="muschel-kontur" fill="#e7c79a" stroke="#3a2a14" stroke-width="0.4" stroke-linejoin="round">
    <path d="M 29.000 5.500 C 31.000 5.500, 32.333 5.653, 35.000 6.420 C 37.667 7.187, 42.167 8.413, 45.000 10.100 C 47.833 11.787, 50.500 13.780, 52.000 16.540 C 53.500 19.300, 54.083 23.133, 54.000 26.660 C 53.917 30.187, 53.167 34.173, 51.500 37.700 C 49.833 41.227, 47.750 45.520, 44.000 47.820 C 40.250 50.120, 34.000 51.500, 29.000 51.500 C 24.000 51.500, 17.750 50.120, 14.000 47.820 C 10.250 45.520, 8.167 41.227, 6.500 37.700 C 4.833 34.173, 4.083 30.187, 4.000 26.660 C 3.917 23.133, 4.500 19.300, 6.000 16.540 C 7.500 13.780, 10.167 11.787, 13.000 10.100 C 15.833 8.413, 20.333 7.187, 23.000 6.420 C 25.667 5.653, 27.000 5.500, 29.000 5.500 Z"/>
  </g>
</svg>
