<?xml version="1.0" encoding="UTF-8"?>
<svg xmlns="http://www.w3.org/2000/svg" width="58.000mm" height="54.000mm" viewBox="0 0 58.000 54.000">
  <title>Herzmuschel (Stempelvorlage)</title>
  <desc>Cardium edule, stilisiert. Aussenkontur + 17 radiale Rippen + Umbo.
        Einheiten: mm. Fuer FreeCAD: Sketcher -> "Sketch aus SVG" -> Pad.</desc>
  <g id="muschel-kontur" fill="#e7c79a" stroke="#3a2a14" stroke-width="0.4" stroke-linejoin="round">
    <path d="M 29.000 5.500 C 31.000 5.500, 32.333 5.653, 35.000 6.420 C 37.667 7.187, 42.167 8.413, 45.000 10.100 C 47.833 11.787, 50.500 13.780, 52.000 16.540 C 53.500 19.300, 54.083 23.133, 54.000 26.660 C 53.917 30.187, 53.167 34.173, 51.500 37.700 C 49.833 41.227, 47.750 45.520, 44.000 47.820 C 40.250 50.120, 34.000 51.500, 29.000 51.500 C 24.000 51.500, 17.750 50.120, 14.000 47.820 C 10.250 45.520, 8.167 41.227, 6.500 37.700 C 4.833 34.173, 4.083 30.187, 4.000 26.660 C 3.917 23.133, 4.500 19.300, 6.000 16.540 C 7.500 13.780, 10.167 11.787, 13.000 10.100 C 15.833 8.413, 20.333 7.187, 23.000 6.420 C 25.667 5.653, 27.000 5.500, 29.000 5.500 Z"/>
  </g>
  <g id="muschel-rippen" fill="none" stroke="#3a2a14" stroke-width="0.55" stroke-linecap="round">
      <path d="M 24.397 7.454 L 6.665 14.981"/>
      <path d="M 24.731 8.103 L 7.148 18.826"/>
      <path d="M 25.156 8.697 L 7.911 23.040"/>
      <path d="M 25.662 9.223 L 9.090 27.709"/>
      <path d="M 26.240 9.669 L 10.893 32.857"/>
      <path d="M 26.877 10.027 L 13.602 38.335"/>
      <path d="M 27.559 10.288 L 17.523 43.635"/>
      <path d="M 28.272 10.447 L 22.784 47.723"/>
      <path d="M 29.000 10.500 L 29.000 49.300"/>
      <path d="M 29.728 10.447 L 35.216 47.723"/>
      <path d="M 30.441 10.288 L 40.477 43.635"/>
      <path d="M 31.123 10.027 L 44.398 38.335"/>
      <path d="M 31.760 9.669 L 47.107 32.857"/>
      <path d="M 32.338 9.223 L 48.910 27.709"/>
      <path d="M 32.844 8.697 L 50.089 23.040"/>
      <path d="M 33.269 8.103 L 50.852 18.826"/>
      <path d="M 33.603 7.454 L 51.335 14.981"/>
  </g>
  <g id="muschel-umbo" fill="#b8915c" stroke="#3a2a14" stroke-width="0.35" stroke-linejoin="round">
    <path d="M 26.600 7.480 Q 29.000 4.360 31.400 7.480 Q 29.000 8.800 26.600 7.480 Z"/>
  </g>
</svg>
